<?xml version="1.0" encoding="utf-8"?>
<svg xmlns="http://www.w3.org/2000/svg" viewBox="0 0 750 500">
  <style>
    @keyframes float {
      0%, 100% { transform: translateY(0px); }
      50% { transform: translateY(-10px); }
    }
    @keyframes pulse-glow {
      0%, 100% { opacity: 0.6; }
      50% { opacity: 1; }
    }
    @keyframes chart-pulse {
      0%, 100% { transform: scale(1); }
      50% { transform: scale(1.05); }
    }
    @keyframes slide-up {
      0% { transform: translateY(30px); opacity: 0; }
      100% { transform: translateY(0); opacity: 1; }
    }
    .float { animation: float 4s ease-in-out infinite; }
    .pulse-glow { animation: pulse-glow 2s ease-in-out infinite; }
    .chart-pulse { animation: chart-pulse 2s ease-in-out infinite; transform-origin: center; }
    .slide-up { animation: slide-up 0.8s ease-out forwards; }
    .breathe { animation: float 5s ease-in-out infinite; }
  </style>
  <!-- RIGHT UI PANEL WITH CHARTS & DATA -->
  <g class="slide-up pulse-glow">
    <path style="fill-rule:evenodd;clip-rule:evenodd;fill:#FFFFFF;" d="M344.783,145.735h177.348c5.51,0,10.019,4.508,10.019,10.019V272.89c0,5.51-4.508,10.019-10.019,10.019H344.783c-5.51,0-10.019-4.509-10.019-10.019V155.753C334.764,150.243,339.273,145.735,344.783,145.735z"/>
    <g>
      <g>
        <path style="fill-rule:evenodd;clip-rule:evenodd;fill:#F2D266;" d="M352.193,168.077h60.768c4.029,0,7.324,3.296,7.324,7.324v52.078c0,4.028-3.296,7.324-7.324,7.324h-60.768c-4.028,0-7.324-3.296-7.324-7.324v-52.078C344.869,171.372,348.165,168.077,352.193,168.077z"/>
        <path style="fill-rule:evenodd;clip-rule:evenodd;fill:#FFFFFF;" d="M420.285,216.275v11.204c0,4.028-3.296,7.324-7.324,7.324h-60.768c-4.028,0-7.324-3.296-7.324-7.324v-19.106l17.39-10.04c1.974-1.139,4.382-0.822,5.994,0.789l17.817,17.817l18.813-10.861c1.974-1.139,4.382-0.822,5.994,0.789L420.285,216.275z"/>
        <circle style="fill-rule:evenodd;clip-rule:evenodd;fill:#FFFFFF;" cx="397.179" cy="187.49" r="9.467"/>
      </g>
      <g>
        <path style="fill-rule:evenodd;clip-rule:evenodd;fill:#879AEC;" d="M434.439,168.077h80.282c4.029,0,7.324,3.296,7.324,7.324v52.078c0,4.028-3.296,7.324-7.324,7.324h-80.282c-4.028,0-7.324-3.296-7.324-7.324v-52.078C427.115,171.372,430.41,168.077,434.439,168.077z"/>
        <g class="chart-pulse">
          <path style="fill-rule:evenodd;clip-rule:evenodd;fill:#2D334D;" d="M433.841,207.349c6.384,2.411,8.492-0.68,10.846-4.135c2.305-3.38,4.824-7.077,11.2-7.077c6.037,0,8.343,5.181,10.603,10.258c2.019,4.536,3.999,8.985,8.639,8.985c4.569,0,7.253-5.871,10.083-12.064c3.189-6.977,6.556-14.343,13.236-14.935c6.972-0.618,9.846,4.146,12.526,8.591c2.12,3.514,4.11,6.813,7.98,6.617l0.055,1.168c-4.568,0.232-6.733-3.357-9.039-7.18c-2.497-4.141-5.176-8.58-11.422-8.027c-6.003,0.532-9.224,7.578-12.274,14.252c-2.992,6.545-5.828,12.751-11.146,12.751c-5.397,0-7.53-4.793-9.706-9.681c-2.106-4.732-4.256-9.562-9.536-9.562c-5.758,0-8.096,3.429-10.233,6.564c-2.628,3.856-4.981,7.307-12.226,4.57L433.841,207.349z"/>
          <circle style="fill-rule:evenodd;clip-rule:evenodd;fill:#2D334D;" cx="433.635" cy="207.897" r="2.328"/>
          <circle style="fill-rule:evenodd;clip-rule:evenodd;fill:#2D334D;" cx="475.129" cy="215.878" r="2.328"/>
          <circle style="fill-rule:evenodd;clip-rule:evenodd;fill:#2D334D;" cx="499.502" cy="188.835" r="2.328"/>
        </g>
        <g>
          <path style="fill-rule:evenodd;clip-rule:evenodd;fill:#2D334D;" d="M476.562,220.714h7.318c0.438,0,0.794,0.357,0.794,0.794v0.171c0,0.437-0.357,0.794-0.794,0.794h-7.318c-0.437,0-0.795-0.357-0.795-0.794v-0.171C475.767,221.071,476.124,220.714,476.562,220.714z M476.562,223.352h4.851c0.438,0,0.795,0.357,0.795,0.794v0.171c0,0.437-0.357,0.794-0.795,0.794h-4.851c-0.438,0-0.795-0.357-0.795-0.794v-0.171C475.767,223.709,476.124,223.352,476.562,223.352z"/>
          <path style="fill-rule:evenodd;clip-rule:evenodd;fill:#2D334D;" d="M496.015,182.023h-7.365c-0.437,0-0.795,0.357-0.795,0.795v0.171c0,0.437,0.357,0.794,0.795,0.794h7.365c0.438,0,0.795-0.357,0.795-0.794v-0.171C496.809,182.38,496.452,182.023,496.015,182.023z M496.015,184.662h-4.851c-0.438,0-0.795,0.357-0.795,0.794v0.171c0,0.438,0.357,0.794,0.795,0.794h4.851c0.438,0,0.795-0.357,0.795-0.794v-0.171C496.809,185.018,496.452,184.662,496.015,184.662z"/>
          <path style="fill-rule:evenodd;clip-rule:evenodd;fill:#2D334D;" d="M432.786,212.902h7.365c0.437,0,0.794,0.357,0.794,0.794v0.171c0,0.437-0.357,0.795-0.794,0.795h-7.365c-0.438,0-0.794-0.357-0.794-0.795v-0.171C431.992,213.259,432.349,212.902,432.786,212.902z M432.786,215.54h4.851c0.438,0,0.794,0.357,0.794,0.794v0.171c0,0.437-0.357,0.794-0.794,0.794h-4.851c-0.438,0-0.794-0.357-0.794-0.794v-0.171C431.992,215.897,432.348,215.54,432.786,215.54z"/>
        </g>
        <g>
          <path style="fill-rule:evenodd;clip-rule:evenodd;fill:#FFFFFF;" d="M435.57,172.076h19.794c1.451,0,2.638,1.187,2.638,2.638l0,0c0,1.451-1.187,2.638-2.638,2.638H435.57c-1.451,0-2.638-1.187-2.638-2.638l0,0C432.932,173.263,434.119,172.076,435.57,172.076z"/>
          <path style="fill-rule:evenodd;clip-rule:evenodd;fill:#FFFFFF;" d="M435.092,178.749h12.605c1.188,0,2.16,0.972,2.16,2.16l0,0c0,1.188-0.971,2.16-2.16,2.16h-12.605c-1.188,0-2.16-0.971-2.16-2.16l0,0C432.932,179.72,433.904,178.749,435.092,178.749z"/>
          <path style="fill-rule:evenodd;clip-rule:evenodd;fill:#FFFFFF;" d="M462.61,172.076h5.676c1.451,0,2.638,1.187,2.638,2.638l0,0c0,1.451-1.187,2.638-2.638,2.638h-5.676c-1.451,0-2.638-1.187-2.638-2.638l0,0C459.972,173.263,461.159,172.076,462.61,172.076z"/>
        </g>
      </g>
      <g>
        <path style="fill-rule:evenodd;clip-rule:evenodd;fill:#2D334D;" d="M344.013,145.735h178.889c5.087,0,9.248,4.161,9.248,9.248v8.66H334.764v-8.66C334.764,149.896,338.926,145.735,344.013,145.735z"/>
        <g>
          <circle style="fill-rule:evenodd;clip-rule:evenodd;fill:#DF6175;" cx="348.436" cy="154.689" r="5.276"/>
          <circle style="fill-rule:evenodd;clip-rule:evenodd;fill:#F2D266;" cx="365.792" cy="154.689" r="5.276"/>
          <circle style="fill-rule:evenodd;clip-rule:evenodd;fill:#699B9F;" cx="383.147" cy="154.689" r="5.276"/>
        </g>
      </g>
    </g>
  </g>
  <!-- ADMIN CHARACTER -->
  <g>
    <g class="float">
      <path style="fill-rule:evenodd;clip-rule:evenodd;fill:#F2D266;" d="M304.485,223.34l21.086,10.933c3.202,1.66,23.513,36.769,24.694,83.665h-88.473c0,0-17.307-72.273-15.733-76.781c1.575-4.509,34.274-18.692,34.274-18.692L304.485,223.34z"/>
      <path style="fill-rule:evenodd;clip-rule:evenodd;fill:#D28434;" d="M341.247,266.416c2.21,6.693,4.317,14.391,5.946,22.997c2.005,10.597,2.843,20.238,3.072,28.525h-88.473c0,0-6.014-25.114-10.629-46.658c11.418,12.633,28.975,25.777,53.342,27.357c6.871,0.445,16.429,0.458,24.755-6.092C340.39,283.789,341.151,269.392,341.247,266.416z"/>
      <path style="fill-rule:evenodd;clip-rule:evenodd;fill:#D28434;" d="M279.142,232.794c6.1,7.705,27.387,19.196,28.811,2.819c0,0,0.939,10.648-8.456,12.422C290.103,249.809,279.142,232.794,279.142,232.794z"/>
    </g>
    <g class="breathe">
      <g>
        <path style="fill-rule:evenodd;clip-rule:evenodd;fill:#EBB2A1;" d="M272.399,184.96c0,0,5.377,15.683,7.934,37.505c0,0,18.164,19.311,23.398,11.008c5.234-8.304-9.695-45.188-9.695-45.188S285.085,181.139,272.399,184.96z"/>
        <path style="fill-rule:evenodd;clip-rule:evenodd;fill:#D37B83;" d="M304.281,221.968c-2.505-13.869-9.323-33.687-9.21-33.684c0,0-6.655-5.908-16.438-4.105l2.22,15.884C280.852,200.063,286.036,222.584,304.281,221.968z"/>
      </g>
      <g>
        <path style="fill-rule:evenodd;clip-rule:evenodd;fill:#2D334D;stroke:#2D334D;stroke-width:0.216;stroke-miterlimit:2.6131;" d="M272.456,181.404c0,0-2.225-13.258-6.893-23.766c-4.669-10.508,0.815-11.419,5.385-7.055c0,0,3.853-10.559,6.512-10.452c2.659,0.107-1.844,6.499-1.844,6.499s21.039-17.791,36.893-5.271c15.854,12.52,10.895-0.998,6.663,0.449c0.625-3.037,5.947-2.535,9.371,1.105c3.424,3.64,10.058,22.725-9.06,26.959C300.364,174.105,272.456,181.404,272.456,181.404z"/>
        <g>
          <path style="fill-rule:evenodd;clip-rule:evenodd;fill:#EBB2A1;" d="M321.306,159.055c0,0,3.812,19.048,2.35,31.804c-1.462,12.756-8.733,20.721-15.676,21.498c-2.831,0.317-15.665,1.735-24.747-6.149c-4.247-3.687-7.674-9.409-8.872-18.229c0,0-8.853,4.122-11.917-8.25c-3.023-12.208,8.367-14.021,11.245-6.506c0.793,3.14,0.931,5.373,0.931,5.373c4.071-6.725,3.32-17.271,3.32-17.271S293.59,150.53,321.306,159.055z"/>
          <path style="fill-rule:evenodd;clip-rule:evenodd;fill:#D37B83;" d="M321.306,159.055c0,0,0.473,2.362,1.021,5.976c-4.062-2.012-6.696-6.077-6.696-6.077c-10.532,15.811-35.76,5.412-35.76,5.412c-0.39,9.097-5.25,14.23-5.25,14.23c4.071-6.725,3.32-17.271,3.32-17.271S293.59,150.53,321.306,159.055z"/>
          <path style="fill-rule:evenodd;clip-rule:evenodd;fill:#D37B83;" d="M274.361,187.979c0,0-8.853,4.122-11.917-8.25c-0.681-2.748-0.97-6.267,2.966-6.419c4.151-0.161,6.291,5.485,6.291,5.485c-3.26-0.035-2.8,6.818,2.385,6.126L274.361,187.979z"/>
        </g>
        <g>
          <path style="fill-rule:evenodd;clip-rule:evenodd;fill:#2D334D;" d="M317.979,154.895c0,0-2.921,15.974-40.881,8.22l-1.828-6.915l23.014-3.152L317.979,154.895z"/>
          <path style="fill-rule:evenodd;clip-rule:evenodd;fill:#2D334D;" d="M315.093,156.146c0,0-8.21,13.505-28.91,11.162C286.183,167.308,306.203,174.654,315.093,156.146z"/>
          <path style="fill-rule:evenodd;clip-rule:evenodd;fill:#2D334D;" d="M314.624,153.104c0,0,6.719,17.904,12.95,11.026C333.805,157.251,314.624,153.104,314.624,153.104z"/>
        </g>
        <g>
          <path style="fill-rule:evenodd;clip-rule:evenodd;fill:#D37B83;" d="M306.062,188.07c0,0,4.068,2.113,9.185-1.054c0,0-1.47,5.209-3.926,5.392C308.865,192.59,306.062,188.07,306.062,188.07z"/>
          <g>
            <path style="fill-rule:evenodd;clip-rule:evenodd;fill:#D37B83;" d="M315.812,195.395c0,0-9.168,2.462-18.072,0.042c0,0,0.275,8.615,8.198,9.3C313.861,205.422,315.812,195.395,315.812,195.395z"/>
            <path style="fill-rule:evenodd;clip-rule:evenodd;fill:#B85263;" d="M299.577,201.09c1.189,1.785,3.145,3.37,6.361,3.648c1.058,0.091,2.009-0.01,2.863-0.251C307.643,202.636,304.737,199.29,299.577,201.09z"/>
            <path style="fill-rule:evenodd;clip-rule:evenodd;fill:#FFFFFF;" d="M315.554,195.46c-1.397,0.337-8.286,1.833-15.536,0.494c0.233,0.965,0.603,2.029,1.149,2.364c1.073,0.657,8.999,2.359,12.696-0.273C314.84,197.349,315.342,196.432,315.554,195.46z"/>
    </g>
    <g>
      <g>
              <path style="fill-rule:evenodd;clip-rule:evenodd;fill:#FFFFFF;" d="M300.467,178.18c0,0,1.49,1.338,1.983,2.76c0,0-3.925,2.335-10.932,0.686C291.518,181.626,292.86,175.68,300.467,178.18z"/>
              <path style="fill:#879AEC;" d="M297.553,177.048c1.559-0.061,2.87,1.115,2.929,2.626c0.035,0.917-0.398,1.746-1.093,2.27c-0.846,0.158-1.862,0.271-3.037,0.27c-0.869-0.438-1.476-1.304-1.516-2.322C294.777,178.382,295.993,177.108,297.553,177.048z"/>
              <path style="fill:#2D334D;" d="M297.574,177.602c1.103-0.043,2.038,1.012,2.091,2.355c0.032,0.815-0.27,1.549-0.758,2.01c-0.598,0.135-1.315,0.227-2.146,0.219c-0.618-0.396-1.054-1.169-1.089-2.074C295.62,178.768,296.471,177.644,297.574,177.602z"/>
              <path style="fill:#2D334D;" d="M302.45,180.94c-1.074-7.356-10.137-6.853-10.932,0.686c0,0,1.982-3.657,5.701-3.626C300.937,178.03,302.45,180.94,302.45,180.94z"/>
              <path style="fill:#FFFFFF;" d="M295.269,179.254c0.723-0.028,1.32,0.252,1.334,0.625c0.014,0.373-0.559,0.698-1.282,0.726c-0.722,0.028-1.32-0.252-1.334-0.625C293.973,179.607,294.547,179.282,295.269,179.254z"/>
              <path style="fill:#2D334D;" d="M291.427,173.477l9.723-0.377c0,0,0.602-1.377-1.909-3.07C299.24,170.031,294.417,170.654,291.427,173.477z"/>
            </g>
            <g>
              <path style="fill-rule:evenodd;clip-rule:evenodd;fill:#FFFFFF;" d="M314.06,177.653c0,0-1.275,1.445-1.624,2.9c0,0,3.795,2.036,10.136-0.13C322.572,180.423,320.892,174.594,314.06,177.653z"/>
              <path style="fill:#879AEC;" d="M316.664,176.308c-1.443,0.056-2.565,1.326-2.506,2.837c0.035,0.917,0.497,1.711,1.177,2.182c0.793,0.095,1.738,0.131,2.822,0.043c0.769-0.502,1.265-1.41,1.226-2.428C319.324,177.432,318.107,176.252,316.664,176.308z"/>
              <path style="fill:#2D334D;" d="M316.686,176.862c-1.021,0.039-1.806,1.16-1.754,2.504c0.031,0.815,0.364,1.525,0.849,1.948c0.562,0.09,1.23,0.129,1.997,0.058c0.54-0.441,0.885-1.244,0.85-2.149C318.576,177.879,317.706,176.822,316.686,176.862z"/>
              <path style="fill:#2D334D;" d="M312.436,180.554c0.444-7.415,8.841-7.588,10.136-0.13c0,0-2.101-3.499-5.529-3.192S312.436,180.554,312.436,180.554z"/>
              <path style="fill:#FFFFFF;" d="M318.935,178.338c-0.668,0.026-1.199,0.35-1.184,0.722c0.015,0.373,0.568,0.655,1.237,0.629c0.669-0.026,1.199-0.349,1.184-0.722C320.157,178.593,319.603,178.312,318.935,178.338z"/>
              <path style="fill:#2D334D;" d="M322.05,172.292l-8.998,0.348c0,0-0.658-1.328,1.533-3.203C314.585,169.437,319.08,169.699,322.05,172.292z"/>
            </g>
            <path style="fill-rule:evenodd;clip-rule:evenodd;fill:#FFFFFF;" d="M296.984,168.127c2.907,0,5.54,1.179,7.446,3.084c1.76,1.76,2.9,4.141,3.064,6.786c0.55-0.176,1.027-0.145,1.396-0.049c0.174-2.625,1.311-4.988,3.061-6.737c1.905-1.905,4.538-3.084,7.446-3.084c2.908,0,5.54,1.179,7.446,3.084c1.906,1.905,3.084,4.538,3.084,7.446c0,2.908-1.179,5.54-3.084,7.446c-1.905,1.906-4.538,3.085-7.446,3.085c-2.908,0-5.54-1.179-7.446-3.085c-1.835-1.835-2.996-4.344-3.079-7.124c-0.258-0.118-0.737-0.232-1.364,0.077c-0.102,2.749-1.259,5.229-3.077,7.047c-1.906,1.906-4.538,3.085-7.446,3.085c-2.908,0-5.541-1.179-7.446-3.085c-1.905-1.905-3.084-4.538-3.084-7.446c0-2.908,1.179-5.54,3.084-7.446S294.077,168.127,296.984,168.127L296.984,168.127z M326.142,171.911c-1.726-1.726-4.112-2.794-6.746-2.794c-2.635,0-5.02,1.068-6.746,2.794c-1.727,1.726-2.794,4.111-2.794,6.746c0,2.635,1.068,5.02,2.794,6.746c1.726,1.727,4.111,2.794,6.746,2.794c2.634,0,5.02-1.068,6.746-2.794c1.726-1.726,2.794-4.112,2.794-6.746C328.936,176.022,327.868,173.637,326.142,171.911L326.142,171.911z M303.73,171.911c-1.726-1.726-4.112-2.794-6.746-2.794c-2.635,0-5.02,1.068-6.746,2.794c-1.726,1.726-2.794,4.111-2.794,6.746c0,2.635,1.068,5.02,2.794,6.746c1.726,1.727,4.112,2.794,6.746,2.794c2.634,0,5.02-1.068,6.746-2.794c1.726-1.726,2.794-4.112,2.794-6.746C306.524,176.022,305.456,173.637,303.73,171.911z"/>
            <polygon style="fill-rule:evenodd;clip-rule:evenodd;fill:#FFFFFF;" points="287.107,177.744 274.402,177.342 274.295,176.349 287.138,176.758"/>
          </g>
        </g>
      </g>
    </g>
    <g>
      <g>
        <path style="fill-rule:evenodd;clip-rule:evenodd;fill:#FFFFFF;" d="M269.152,295.986c0,0-6.879-55.578-21.721-56.472c-14.843-0.894-2.637,65.813-2.637,65.813s4.693,3.503,14.376-0.318C268.853,301.186,269.152,295.986,269.152,295.986z"/>
        <path style="fill-rule:evenodd;clip-rule:evenodd;fill:#FFFFFF;" d="M271.25,297.045c-33.092-21.659-48.572,29.889-6.207,17.89L271.25,297.045z"/>
      </g>
      <g>
        <path style="fill-rule:evenodd;clip-rule:evenodd;fill:#D37B83;" d="M315.811,282.071l-0.592-1.176c7.704-11.159,8.264-6.492,13.545-13.199c2.841-3.609,4.049,3.06,1.579,6.105C326.524,276.146,315.811,282.071,315.811,282.071z"/>
        <path style="fill-rule:evenodd;clip-rule:evenodd;fill:#EBB2A1;" d="M249.216,302.518c-6.762,14.708,7.698,14.825,16.604,12.199c8.905-2.626,52.646-22.283,52.646-22.283l-4.234-10.785C297.469,285.623,255.979,287.81,249.216,302.518z"/>
        <path style="fill-rule:evenodd;clip-rule:evenodd;fill:#D37B83;" d="M249.216,302.518c-6.762,14.708,7.698,14.826,16.603,12.199c0.598-0.176,1.357-0.431,2.244-0.75c-4.737,0.479-9.671,0.05-12.289-2.972c-3.937-4.544-1.618-11.335,0.456-15.486C252.944,297.472,250.477,299.777,249.216,302.518z"/>
        <polygon style="fill-rule:evenodd;clip-rule:evenodd;fill:#D37B83;" points="329.325,276.919 330.211,273.35 343.014,276.681 341.916,288.211 331.608,289.522"/>
        <path style="fill-rule:evenodd;clip-rule:evenodd;fill:#EBB2A1;" d="M312.19,283.933l2.042-2.542l15.979-8.041c0,0,2.895,9.284,1.398,16.172c0,0-7.617,3.625-13.142,2.911L312.19,283.933z"/>
      </g>
    </g>
  </g>
</svg>
