<?xml version="1.0" encoding="utf-8"?>
<svg xmlns="http://www.w3.org/2000/svg" viewBox="0 0 750 500">
  <style>
    .wave-flow {
      animation: waveFlow 4s ease-in-out infinite;
      transform-origin: center;
    }
    @keyframes waveFlow {
      0%, 100% { transform: translateX(0); }
      50% { transform: translateX(15px); }
    }
    .twinkle {
      animation: twinkle 3s ease-in-out infinite;
      transform-origin: center;
    }
    @keyframes twinkle {
      0%, 100% { opacity: 1; transform: scale(1); }
      50% { opacity: 0.5; transform: scale(0.8); }
    }
    .breathe {
      animation: breathe 4s ease-in-out infinite;
      transform-origin: center;
    }
    @keyframes breathe {
      0%, 100% { transform: scale(1); }
      50% { transform: scale(1.03); }
    }
    .pulse {
      animation: pulse 2s ease-in-out infinite;
      transform-origin: center;
    }
    @keyframes pulse {
      0%, 100% { opacity: 1; }
      50% { opacity: 0.7; }
    }
  </style>
  <!-- DECORATIVE WAVE -->
  <path class="wave-flow" style="fill:#CCE6EA;" d="M750,32.95V500H294.57c-48.93-41.12-82.64-100.06-74.4-170.96C231,236.01,305.6,162.26,394.41,161.27c31.01-0.35,60.03-2.82,80.34-30.08c9.12-12.25,16.05-26.05,24.47-38.82c3.74-5.67,7.77-10.76,12.07-15.34C566.5,18.23,673.72-1.82,750,32.95z"/>
  <!-- UI DESKTOP PANEL -->
  <g class="pulse">
    <g>
      <rect x="392.3" y="118.23" style="fill:#F9F6EF;" width="357.7" height="252.92"/>
      <rect x="370.3" y="107.51" style="fill:#357C8C;" width="379.7" height="11.91"/>
    </g>
    <g>
      <g>
        <g>
          <rect x="672.13" y="476.06" style="fill:#357C8C;" width="77.87" height="23.94"/>
          <rect x="686.15" y="487.64" style="fill:#24535B;" width="63.85" height="12.36"/>
        </g>
        <g>
          <rect x="672.13" y="366.81" style="fill:#357C8C;" width="77.87" height="109.07"/>
          <rect x="686.15" y="378.4" style="fill:#24535B;" width="63.85" height="85.9"/>
        </g>
      </g>
      <g>
        <g>
          <rect x="672.13" y="258.45" style="fill:#357C8C;" width="77.87" height="109.07"/>
          <rect x="686.15" y="270.03" style="fill:#24535B;" width="63.85" height="85.91"/>
        </g>
      </g>
    </g>
    <g>
      <rect x="241.164" y="446.312" style="fill:#357C8C;" width="310.589" height="30.904"/>
      <g>
        <g>
          <path style="fill:#F3803D;" d="M533.79,392.23c0,7.9-5.03,14.63-12.08,17.13c-1.91,0.69-3.97,1.06-6.11,1.06h-93.4v-6.02c2.23-4.61,3.19-9.23,2.88-13.84c-0.07-1.2-0.24-2.39-0.49-3.58c-0.48-2.31-1.28-4.61-2.39-6.92v-6.02h93.4c5.02,0,9.57,2.04,12.86,5.33C531.76,382.66,533.79,387.21,533.79,392.23z"/>
          <path style="fill:#F7E4D9;" d="M526.53,392.23c0,7.06-5.72,12.79-12.79,12.79h-90.92c-0.34,0-0.62-0.28-0.62-0.62c1.03-2.12,1.79-4.25,2.27-6.37c0.28-1.19,0.47-2.39,0.58-3.58c0.1-1.3,0.12-2.6,0.03-3.89c-0.07-1.2-0.24-2.39-0.49-3.58c-0.48-2.31-1.28-4.61-2.39-6.92c0-0.34,0.28-0.62,0.62-0.62h90.92c3.54,0,6.73,1.43,9.05,3.75C525.1,385.5,526.53,388.7,526.53,392.23z"/>
          <path style="fill:#E2CCC0;" d="M508.61,386.98v3.58h-83.53c-0.07-1.2-0.24-2.39-0.49-3.58H508.61z"/>
          <path style="opacity:0.41;fill:#E2CCC0;" d="M503.66,394.45v3.58h-79.19c0.28-1.19,0.47-2.39,0.58-3.58H503.66z"/>
        </g>
      </g>
      <g>
        <g>
          <path style="fill:#24535B;" d="M538.843,428.61c0,7.9-5.03,14.63-12.08,17.13c-1.91,0.69-3.97,1.06-6.11,1.06h-93.4v-6.02c2.23-4.61,3.19-9.23,2.88-13.84c-0.07-1.2-0.24-2.39-0.49-3.58c-0.48-2.31-1.28-4.61-2.39-6.92v-6.02h93.4c5.02,0,9.57,2.04,12.86,5.33C536.813,419.04,538.843,423.59,538.843,428.61z"/>
          <path style="fill:#F7E4D9;" d="M531.583,428.61c0,7.06-5.72,12.79-12.79,12.79h-90.92c-0.34,0-0.62-0.28-0.62-0.62c1.03-2.12,1.79-4.25,2.27-6.37c0.28-1.19,0.47-2.39,0.58-3.58c0.1-1.3,0.12-2.6,0.03-3.89c-0.07-1.2-0.24-2.39-0.49-3.58c-0.48-2.31-1.28-4.61-2.39-6.92c0-0.34,0.28-0.62,0.62-0.62h90.92c3.54,0,6.73,1.43,9.05,3.75C530.153,421.88,531.583,425.08,531.583,428.61z"/>
          <path style="fill:#E2CCC0;" d="M513.663,423.36v3.58h-83.53c-0.07-1.2-0.24-2.39-0.49-3.58H513.663z"/>
          <path style="opacity:0.41;fill:#E2CCC0;" d="M508.713,430.83v3.58h-79.19c0.28-1.19,0.47-2.39,0.58-3.58H508.713z"/>
        </g>
      </g>
      <g>
        <g>
          <g>
            <rect x="270.413" y="338.623" style="fill:#F7E4D9;" width="5.583" height="90.432"/>
            <rect x="396.275" y="338.623" style="fill:#F7E4D9;" width="5.582" height="90.432"/>
          </g>
          <g>
            <path style="fill:#357C8C;" d="M301.107,426.001L301.107,426.001c-4.94,0-8.944-4.005-8.944-8.944v-80.48h17.889v80.48C310.052,421.996,306.047,426.001,301.107,426.001z"/>
            <path style="fill:#F9F6EF;" d="M306.467,340.155v76.896c0,2.958-2.402,5.359-5.359,5.359c-2.958,0-5.359-2.402-5.359-5.359v-76.896H306.467z"/>
            <path style="fill:#F3803D;" d="M306.467,350.193v66.858c0,2.958-2.402,5.359-5.359,5.359c-2.958,0-5.359-2.402-5.359-5.359v-66.858H306.467z"/>
            <rect x="289.767" y="332.728" style="fill:#357C8C;" width="22.681" height="7.697"/>
          </g>
          <g>
            <path style="fill:#357C8C;" d="M331.65,426.001L331.65,426.001c-4.94,0-8.944-4.005-8.944-8.944v-80.48h17.889v80.48C340.595,421.996,336.59,426.001,331.65,426.001z"/>
            <path style="fill:#F9F6EF;" d="M337.01,340.155v76.896c0,2.958-2.402,5.359-5.359,5.359c-2.958,0-5.359-2.402-5.359-5.359v-76.896H337.01z"/>
            <path style="fill:#24535B;" d="M326.291,379.689v37.363c0,2.958,2.402,5.359,5.359,5.359c2.958,0,5.359-2.402,5.359-5.359v-37.363H326.291z"/>
            <rect x="320.31" y="332.728" style="fill:#357C8C;" width="22.681" height="7.697"/>
          </g>
          <g>
            <path style="fill:#357C8C;" d="M362.193,426.001L362.193,426.001c-4.94,0-8.945-4.005-8.945-8.944v-80.48h17.889v80.48C371.137,421.996,367.133,426.001,362.193,426.001z"/>
            <path style="fill:#F9F6EF;" d="M367.553,340.155v76.896c0,2.958-2.402,5.359-5.359,5.359c-2.957,0-5.359-2.402-5.359-5.359v-76.896H367.553z"/>
            <path style="fill:#EFBD65;" d="M356.834,396.087v20.965c0,2.958,2.402,5.359,5.359,5.359c2.958,0,5.359-2.402,5.359-5.359v-20.965H356.834z"/>
            <rect x="350.853" y="332.728" style="fill:#357C8C;" width="22.681" height="7.697"/>
          </g>
          <g>
            <rect x="262.761" y="356.582" style="fill:#F7E4D9;" width="146.749" height="5.111"/>
            <rect x="262.761" y="408.332" style="fill:#F7E4D9;" width="146.749" height="5.111"/>
          </g>
        </g>
        <rect x="258.665" y="429" style="fill:#F9F6EF;" width="153.249" height="17.312"/>
      </g>
      <polygon style="fill:#24535B;" points="537.48,477.22 537.48,500 495.44,500 495.44,494.2 281.21,494.2 281.21,500 253,500 253,477.22"/>
    </g>
  </g>
  <!-- STAR DECORATIONS -->
  <g class="twinkle">
    <g>
      <path style="fill:#DDDAD3;" d="M426.145,138.745l-1.594-4.718l-1.594,4.718c-2.052,6.075-6.314,11.155-11.939,14.232l0,0l0,0c5.625,3.077,9.887,8.157,11.939,14.232l1.594,4.718l1.594-4.718c2.052-6.075,6.314-11.155,11.939-14.232l0,0l0,0C432.459,149.901,428.197,144.82,426.145,138.745z"/>
    </g>
    <g>
      <path style="fill:#DDDAD3;" d="M512.576,221.444l-0.867-2.567l-0.867,2.567c-1.116,3.305-3.435,6.069-6.496,7.743l0,0l0,0c3.06,1.674,5.379,4.438,6.496,7.743l0.867,2.567l0.867-2.567c1.116-3.305,3.435-6.069,6.496-7.743l0,0l0,0C516.011,227.514,513.692,224.749,512.576,221.444z"/>
    </g>
    <g>
      <path style="fill:#DDDAD3;" d="M708.287,142.331l-1.594-4.718l-1.594,4.718c-2.052,6.075-6.314,11.155-11.939,14.232l0,0l0,0c5.625,3.077,9.887,8.157,11.939,14.232l1.594,4.718l1.594-4.718c2.052-6.075,6.314-11.155,11.939-14.232l0,0l0,0C714.601,153.486,710.339,148.406,708.287,142.331z"/>
    </g>
    <g>
      <path style="fill:#DDDAD3;" d="M722.831,215.765l-0.797-2.358l-0.797,2.358c-1.025,3.036-3.155,5.575-5.967,7.113l0,0l0,0c2.811,1.538,4.941,4.077,5.967,7.113l0.797,2.358l0.797-2.358c1.025-3.036,3.155-5.575,5.967-7.113l0,0l0,0C725.987,221.34,723.857,218.801,722.831,215.765z"/>
    </g>
    <g>
      <path style="fill:#FFFFF0;" d="M296.672,277.635l-1.594-4.718l-1.594,4.718c-2.052,6.075-6.314,11.155-11.939,14.232l0,0l0,0c5.625,3.077,9.887,8.157,11.939,14.232l1.594,4.718l1.594-4.718c2.052-6.075,6.314-11.155,11.939-14.232l0,0l0,0C302.986,288.79,298.724,283.709,296.672,277.635z"/>
    </g>
    <g>
      <path style="fill:#FFFFF0;" d="M246.331,358.656l-0.516-1.528l-0.516,1.528c-0.665,1.968-2.045,3.613-3.867,4.61l0,0l0,0c1.822,0.997,3.203,2.642,3.867,4.61l0.516,1.528l0.516-1.528c0.665-1.968,2.045-3.613,3.867-4.61l0,0l0,0C248.376,362.269,246.996,360.623,246.331,358.656z"/>
    </g>
    <g>
      <path style="fill:#FFFFF0;" d="M295.594,224.578l-0.516-1.528l-0.516,1.528c-0.665,1.967-2.045,3.613-3.867,4.61l0,0l0,0c1.822,0.997,3.202,2.642,3.867,4.61l0.516,1.528l0.516-1.528c0.665-1.968,2.045-3.613,3.867-4.61l0,0l0,0C297.639,228.191,296.259,226.545,295.594,224.578z"/>
    </g>
    <g>
      <path style="fill:#357C8C;" d="M347.687,198.633l-1.173-3.472l-1.173,3.472c-1.51,4.47-4.646,8.209-8.786,10.472l0,0l0,0c4.139,2.264,7.276,6.003,8.786,10.473l1.173,3.472l1.173-3.472c1.51-4.47,4.646-8.209,8.786-10.473l0,0l0,0C352.333,206.841,349.197,203.103,347.687,198.633z"/>
    </g>
    <g>
      <path style="fill:#357C8C;" d="M425.884,282.093l-1.629-4.823l-1.629,4.823c-2.097,6.21-6.454,11.403-12.205,14.548l0,0l0,0c5.75,3.145,10.107,8.338,12.205,14.548l1.629,4.823l1.629-4.823c2.097-6.21,6.454-11.403,12.205-14.548l0,0l0,0C432.338,293.496,427.981,288.303,425.884,282.093z"/>
    </g>
    <g>
      <path style="fill:#DDDAD3;" d="M442.592,335.443l-0.653-1.933l-0.653,1.933c-0.841,2.488-2.587,4.57-4.891,5.83l0,0l0,0c2.304,1.26,4.051,3.342,4.891,5.83l0.653,1.933l0.653-1.933c0.84-2.489,2.586-4.57,4.891-5.83l0,0l0,0C445.178,340.012,443.432,337.931,442.592,335.443z"/>
    </g>
    <g>
      <path style="fill:#F9993A;" d="M675.422,208.264l-0.808-2.392l-0.808,2.392c-1.04,3.08-3.201,5.656-6.053,7.216l0,0l0,0c2.852,1.56,5.013,4.136,6.053,7.216l0.808,2.392l0.808-2.392c1.04-3.08,3.201-5.656,6.053-7.216l0,0l0,0C678.624,213.92,676.463,211.344,675.422,208.264z"/>
    </g>
  </g>
  <!-- STUDENT CHARACTER AND PROPS -->
  <g class="breathe">
    <g>
      <g>
        <g>
          <g>
            <g>
              <g>
                <g>
                  <path style="fill:#F3A080;" d="M465.585,171.483c2.626-0.334,16.428,39.904,16.428,39.904
                    c2.525-6.262,7.26-11.63,13.171-14.916c0.056-0.029,0.111-0.058,0.167-0.088c0.547-0.273,1.19-0.473,1.683-0.156
                    c0.237,0.155,0.392,0.404,0.519,0.655c1.083,2.151,0.714,4.782-0.234,7.003c-0.949,2.211-2.436,4.152-3.622,6.236
                    c-2.299,4-2.955,8.631-3.585,13.197c-1.081,7.722-13.84,13.74-13.84,13.74s1.987,7.075,2.617,8.668l-23.994,7.112
                    l-1.228-17.658l-4.475-4.032c-2.811-3.307-12.161-42.968-9.79-44.318c0.639-0.369,1.372-0.702,2.097-0.998
                    c1.124-0.453,2.213-0.803,2.94-1.033c0.54-0.161,0.876-0.243,0.876-0.243s1.008-1.135,2.343-2.277
                    c0.773-0.699,1.668-1.391,2.52-1.877c0.917-0.534,1.801-0.795,2.453-0.537c0.652,0.259,2.035,2.442,3.678,5.406
                    c4.072,7.309,9.784,19.316,10.282,18.462c0.679-1.194-4.95-30.017-4.95-30.017s0.528-0.751,1.564-1.39
                    C463.814,171.95,464.613,171.606,465.585,171.483z"/>
                  <g>
                    <g>
                      <path style="fill:#B54B57;" d="M447.653,182.275c0.243,0.724,0.5,1.46,0.783,2.195c1.641,4.305,3.629,8.002,5.208,10.587
                        c1.484,2.423,2.588,3.898,2.723,4.07c-0.05-0.21-0.494-1.997-1.297-4.701c-0.859-2.893-2.103-6.828-3.721-11.061
                        c-0.391-1.021-0.787-2.008-1.174-2.963C449.325,180.883,448.432,181.579,447.653,182.275z"/>
                    </g>
                    <g>
                      <path style="fill:#B54B57;" d="M441.503,185.835c2.478,6.901,5.652,11.996,5.854,12.318
                        c-0.033-0.383-0.654-6.366-2.924-13.357C443.71,185.025,442.621,185.38,441.503,185.835z"/>
                    </g>
                  </g>
                </g>
                <g>
                  <path style="fill:#B54B57;" d="M462.945,232.792c0,0-0.08-0.299-0.217-0.817c-0.141-0.533-0.263-1.319-0.303-2.308
                    c-0.092-1.966,0.347-4.815,1.93-7.471c1.592-2.651,3.895-4.385,5.671-5.233c0.891-0.432,1.641-0.696,2.177-0.824
                    c0.521-0.123,0.823-0.195,0.823-0.195s-0.217,0.219-0.593,0.598c-0.386,0.363-0.909,0.925-1.513,1.608
                    c-1.222,1.371-2.659,3.32-4.014,5.572c-1.343,2.258-2.383,4.446-3.012,6.171c-0.316,0.856-0.565,1.583-0.702,2.094
                    C463.036,232.498,462.945,232.792,462.945,232.792z"/>
                </g>
              </g>
            </g>
          </g>
        </g>
        <path style="fill:#F3A080;" d="M546.73,259.302l-2.91,12.59l-15.74,68.2c0,0-7.22,7.14-15.73,13.98
          c-8.47,6.8-18.21,13.31-23.36,12.19c-10.32-2.26-23.05-14.82-28.03-23.32c-4.97-8.51-6.07-85.49-6.07-90.11l23.9-7.55
          l14.56,64.16c0,0,0.51-1.33,1.4-3.55c3.9-9.79,15.17-36.83,22.52-42.77c3.41-2.75,8.45-3.97,13.4-4.42
          C538.82,257.962,546.73,259.302,546.73,259.302z"/>
        <path style="fill:#EA7C6F;" d="M543.82,271.892l-15.74,68.2c0,0-7.22,7.14-15.73,13.98l-17.42-47.19l-0.18-0.99
          c3.9-9.79,15.17-36.83,22.52-42.77c3.41-2.75,8.45-3.97,13.4-4.42C534.59,260.432,539.16,265.392,543.82,271.892z"/>
        <path style="fill:#EFBD65;" d="M550.27,254.679c0,0-31.887,1.82-35.065,5.295c-3.178,3.475-21.847,30.154-21.847,30.154
          l31.93,70.113L550.27,254.679z"/>
      </g>
      <g>
        <polygon style="fill:#163033;" points="667.86,500 660.566,445.43 522.214,445.43 516.21,500"/>
        <path style="fill:#EFBD65;" d="M666.573,456.898c-3.151-41.941-13.899-197.195-13.899-197.195L605.4,246.742l-29.685,4.11
          l-40.048,7.691c0,0-16.827,159.888-18.398,198.468C517.27,457.01,603.971,472.424,666.573,456.898z"/>
        <path style="fill:#F7E4D9;" d="M575.378,249.05c0,0-11.189,2.803-15.024,6.04l5.715,26.397l25.99-11.641l24.233,7.95
          c0,0,2.796-26.755,1.81-28.746c-0.986-1.991-12.703-3.493-12.703-3.493L575.378,249.05z"/>
        <g>
          <g>
            <path style="fill:#F3A080;" d="M607.467,252.937c0,0-6.964,5.569-13.754,6.861c-6.8,1.291-16.408-4.918-16.408-4.918
              l-0.445-10.863l-0.775-18.928l28.984-1.454l1.566,19.129L607.467,252.937z"/>
            <path style="fill:#EA7C6F;" d="M606.634,242.764c-5.197,1.981-12.262,4.437-16.102,4.774
              c-3.591,0.309-9.278-1.668-13.673-3.52l-0.775-18.928l28.984-1.454L606.634,242.764z"/>
          </g>
          <g>
            <g>
              <g>
                <g>
                  <g>
                    <g>
                      <path style="fill:#F8BF92;" d="M549.195,219.453c-8.493-0.772-14.728-7.106-18.083-12.427
                        c-0.754-1.2-1.363-2.349-1.82-3.369c-2.472-5.558-3.343-24.9,2.856-29.453c4.345-3.185,7.568,1.352,9.108,4.359
                        c0,0.005,0,0.01,0,0.01c0.656,1.279,1.009,2.279,1.009,2.279L549.195,219.453z"/>
                      <path style="fill:#F3A080;" d="M550.708,219.56c-8.493-0.772-16.241-7.214-19.596-12.534
                        c-0.291-0.543-0.545-1.061-0.763-1.554c-2.473-5.557-3.344-24.899,2.856-29.448c3.518-2.585,6.302-0.098,8.052,2.539
                        c0,0.005,0,0.01,0,0.01c0.656,1.279,1.009,2.279,1.009,2.279L550.708,219.56z"/>
                      <path style="fill:#EA7C6F;" d="M530.319,189.591c-0.299,1.55-0.087,3.16,0.328,4.684
                        c1.763,6.478,6.916,11.387,11.848,15.943c-1.502-3.136-2.077-6.686-1.806-10.152c0.094-1.206,0.288-2.406,0.286-3.615
                        C540.968,191.582,532.085,180.425,530.319,189.591z"/>
                      <g>
                        <path style="fill:#B54B57;" d="M544.967,212.043c0,0-0.096-0.068-0.28-0.197c-0.178-0.135-0.466-0.312-0.794-0.59
                          c-0.66-0.55-1.573-1.432-2.437-2.745c-0.861-1.309-1.647-3.059-2.031-5.138c-0.349-2.07-0.302-4.489,0.555-6.826
                          c0.09-0.296,0.219-0.577,0.348-0.855l0.096-0.208c0.023-0.053,0.009-0.02,0.013-0.025l-0.002,0.007l0.005-0.003
                          l0.001,0.001c0,0,0.006,0.01-0.014-0.034l-0.082-0.186l-0.168-0.368c-0.116-0.242-0.228-0.484-0.348-0.72
                          c-0.47-0.947-0.977-1.835-1.497-2.661c-0.521-0.826-1.06-1.585-1.591-2.278c-0.537-0.689-1.052-1.335-1.563-1.813
                          c-0.51-0.482-1.069-0.792-1.591-0.874c-0.523-0.07-1.015,0.085-1.345,0.296c-0.335,0.216-0.518,0.491-0.593,0.696
                          c-0.081,0.204-0.075,0.328-0.084,0.327c0,0-0.026-0.118,0.012-0.346c0.032-0.227,0.164-0.569,0.496-0.888
                          c0.331-0.309,0.849-0.603,1.54-0.631c0.69-0.014,1.436,0.273,2.104,0.742c0.675,0.473,1.28,1.065,1.92,1.716
                          c0.635,0.657,1.279,1.397,1.899,2.222c0.619,0.826,1.218,1.734,1.763,2.721c0.138,0.246,0.268,0.498,0.399,0.753
                          l0.192,0.387l0.254,0.547l0.176,0.384c-0.043,0.128-0.11,0.257-0.165,0.387l-0.244,0.553
                          c-0.109,0.242-0.221,0.485-0.298,0.744c-0.745,2.027-0.896,4.143-0.736,6.039c0.195,1.898,0.712,3.581,1.338,4.913
                          c0.627,1.334,1.339,2.325,1.872,2.977c0.264,0.329,0.504,0.555,0.651,0.726
                          C544.887,211.956,544.967,212.043,544.967,212.043z"/>
                      </g>
                    </g>
                    <g>
                      <path style="fill:#F8BF92;" d="M627.488,216.829c8.483-0.874,14.641-7.284,17.932-12.645
                        c0.74-1.209,1.334-2.365,1.779-3.391c2.405-5.587,3.042-24.938-3.211-29.416c-4.383-3.132-7.551,1.443-9.055,4.469
                        c0,0.005,0,0.01,0,0.01c-0.641,1.286-0.981,2.291-0.981,2.291L627.488,216.829z"/>
                      <path style="fill:#F3A080;" d="M625.976,216.954c8.484-0.874,16.153-7.409,19.444-12.77
                        c0.284-0.547,0.532-1.068,0.744-1.562c2.406-5.587,3.043-24.938-3.211-29.411c-3.549-2.542-6.302-0.022-8.021,2.635
                        c0,0.005,0,0.01,0,0.01c-0.641,1.286-0.981,2.291-0.981,2.291L625.976,216.954z"/>
                      <path style="fill:#EA7C6F;" d="M646.003,186.741c0.318,1.546,0.125,3.159-0.271,4.687
                        c-1.685,6.499-6.778,11.47-11.655,16.085c1.464-3.153,1.996-6.71,1.684-10.173c-0.109-1.205-0.317-2.402-0.33-3.612
                        C635.379,188.86,644.126,177.597,646.003,186.741z"/>
                      <g>
                        <path style="fill:#B54B57;" d="M631.626,209.368c0,0,0.096-0.069,0.278-0.2c0.177-0.137,0.462-0.317,0.786-0.599
                          c0.653-0.558,1.555-1.451,2.404-2.774c0.845-1.319,1.61-3.079,1.969-5.162c0.324-2.075,0.248-4.492-0.637-6.819
                          c-0.094-0.295-0.226-0.574-0.358-0.851l-0.098-0.207c-0.024-0.052-0.01-0.019-0.013-0.025l0.002,0.007l-0.005-0.003
                          l-0.001,0c0,0-0.005,0.01,0.014-0.034l0.08-0.187l0.164-0.37c0.113-0.244,0.222-0.487,0.339-0.724
                          c0.458-0.953,0.955-1.847,1.465-2.679c0.511-0.832,1.041-1.598,1.564-2.297c0.529-0.695,1.036-1.348,1.542-1.831
                          c0.504-0.488,1.059-0.805,1.58-0.893c0.522-0.077,1.016,0.072,1.348,0.279c0.337,0.212,0.524,0.485,0.601,0.689
                          c0.084,0.203,0.079,0.327,0.088,0.326c0,0,0.024-0.118-0.016-0.346c-0.035-0.227-0.171-0.567-0.506-0.882
                          c-0.334-0.305-0.857-0.592-1.547-0.612c-0.69-0.006-1.433,0.29-2.095,0.768c-0.669,0.48-1.267,1.081-1.899,1.739
                          c-0.627,0.665-1.262,1.412-1.872,2.245c-0.609,0.833-1.197,1.749-1.73,2.742c-0.135,0.247-0.262,0.502-0.39,0.758
                          l-0.187,0.389l-0.247,0.55l-0.171,0.387c0.045,0.128,0.114,0.256,0.17,0.385l0.251,0.55
                          c0.112,0.24,0.227,0.482,0.307,0.74c0.77,2.018,0.946,4.133,0.809,6.029c-0.172,1.9-0.669,3.59-1.279,4.928
                          c-0.611,1.342-1.31,2.341-1.836,2.999c-0.26,0.333-0.497,0.561-0.642,0.733
                          C631.705,209.28,631.626,209.368,631.626,209.368z"/>
                      </g>
                    </g>
                  </g>
                  <g>
                    <path style="fill:#F8BF92;" d="M633.716,146.369l-46.707-2.546l-0.178,0.002l-46.644,3.511c0,0-0.358,40.812,0.473,45.784
                      c0.815,4.972,6.864,29.451,13.901,37.918c1.391,1.675,4.716,3.218,8.757,4.567c15.758,5.261,32.903,5.054,48.602-0.381
                      c4.247-1.47,7.763-3.13,9.156-4.873c6.86-8.61,12.386-33.209,13.114-38.197
                      C634.901,187.165,633.716,146.369,633.716,146.369z"/>
                    <path style="fill:#F3A080;" d="M633.716,146.369l-46.71-2.546l-0.172,0.002l-46.648,3.511c0,0,1.385,38.379,2.184,43.077
                      c0.783,4.698,6.603,27.827,13.377,35.826c1.339,1.582,4.541,3.04,8.431,4.314c15.172,4.968,31.678,4.769,46.795-0.369
                      c4.09-1.39,7.475-2.959,8.816-4.606c6.607-8.137,11.932-31.382,12.633-36.095
                      C633.109,184.769,633.716,146.369,633.716,146.369z"/>
                  </g>
                </g>
              </g>
              <g>
                <g>
                  <path style="fill:#734641;" d="M548.973,171.68c0,0,16.128-8.838,20.988-6.691c4.86,2.147,5.585,5.611,3.125,6.848
                    C570.626,173.073,548.973,171.68,548.973,171.68z"/>
                  <path style="fill:#734641;" d="M622.901,172.674c0,0-13.731-12.234-18.95-11.233c-5.218,1.001-6.702,4.214-4.583,5.971
                    C601.488,169.17,622.901,172.674,622.901,172.674z"/>
                </g>
                <g>
                  <path style="fill:#1D1E1E;" d="M564.316,179.75c-5.298-0.7-10.885,2.261-13.279,7.039c3.753-2.567,8.458-3.705,12.97-3.137
                    c4.47,0.563,7.306,2.921,10.91,5.153C574.18,184.104,568.739,180.334,564.316,179.75z"/>
                  <path style="fill:#1D1E1E;" d="M609.437,178.954c-5.343,0.133-10.4,3.928-12.022,9.02c3.308-3.12,7.779-4.977,12.323-5.118
                    c4.503-0.14,7.672,1.748,11.579,3.392C619.858,181.72,613.897,178.843,609.437,178.954z"/>
                </g>
                <g>
                  <path style="fill:#EA7C6F;" d="M636.041,196.177c0.499,2.698-4.105,5.811-10.283,6.954
                    c-6.179,1.143-11.591-0.118-12.09-2.816c-0.499-2.698,4.105-5.811,10.283-6.954
                    C630.129,192.218,635.542,193.479,636.041,196.177z"/>
                  <path style="fill:#EA7C6F;" d="M541.458,194.243c-0.874,2.601,3.246,6.331,9.202,8.332
                    c5.956,2.001,11.492,1.515,12.366-1.086c0.874-2.601-3.246-6.331-9.202-8.332
                    C547.869,191.156,542.332,191.642,541.458,194.243z"/>
                </g>
                <g>
                  <path style="fill:#EA7C6F;" d="M593.359,200.636c-4.008,1.878-9.103,1.131-12.404-1.818
                    c-0.079,3.064,2.267,6.134,5.297,6.598C589.283,205.879,592.518,203.584,593.359,200.636z"/>
                  <path style="fill:#DD5B67;" d="M585.527,204.42c-0.779-0.336-1.666-0.861-2.448-1.599
                    c-0.783-0.738-1.388-1.687-1.374-2.685c-0.016-0.984,0.637-1.673,1.588-2.076c0.648-0.264,1.32-0.319,1.951-0.263
                    c0.268,0.023,0.506,0.06,0.734,0.118c0.084-0.295,0.153-0.621,0.238-0.991c0.321-1.562,0.622-3.684,0.625-6.09
                    c0.025-4.654-1.125-8.361-1.269-8.789c-0.087,0.445-0.675,4.241-0.682,8.777c-0.02,2.174,0.109,4.152,0.242,5.705
                    c-0.679-0.198-1.46-0.259-2.315-0.045c-0.713,0.165-1.437,0.501-2.067,1.124c-0.638,0.644-1.007,1.587-0.99,2.496
                    c-0.032,1.869,1.186,3.268,2.266,4.014c1.125,0.763,2.291,1.14,3.256,1.243c0.98,0.133,1.764,0.044,2.281-0.067
                    c0.383-0.085,0.638-0.168,0.751-0.201C588.093,205.084,586.963,205.021,585.527,204.42z"/>
                </g>
              </g>
            </g>
            <g>
              <path style="fill:#5B322F;" d="M651.978,130.834c-1.493,5.071-5.093,9.402-9.495,12.334c1.169,2.589,1.219,5.583,0.342,8.29
                c-0.477,1.49-1.208,2.903-2.191,4.113l0.856,14.757l-7.071,11.291l-4.903-8.407l-0.774-14.081
                c-2.764-0.768-5.277-2.445-6.813-4.856c-2.878,3.574-8.218,4.34-12.577,2.857c-1.217-0.418-2.321-1.072-3.314-1.87
                c-2.169,1.157-4.694,1.651-7.135,1.307c-3.534-0.486-6.789-2.684-8.552-5.793c-3.463,5.026-9.276,8.359-15.377,8.786
                c-6.083,0.428-12.274-1.902-16.41-6.412c-3.404,3.366-6.9,6.785-11.235,8.843c-0.037,0.018-0.11,0.035-0.147,0.071
                l-6.946,22.114l-6.055-10.941l-0.251-10.99c-0.109-0.056-0.254-0.113-0.362-0.188c-1.737-1.064-3.083-2.762-3.841-4.652
                c-1.042-2.569-0.983-5.507,0.635-7.711c-3.839,0.477-8.108-2.338-8.547-6.176c-0.846-7.475,3.308-9.7,6.321-11.173
                c-4.821-3.771-6.861-10.715-4.884-16.491c1.977-5.794,7.839-10.021,13.971-10.064c1.331-6.57,6.791-12.116,13.326-13.577
                c6.443-1.427,11.751,2.789,16.144,7.138c4.624-3.185,10.438-7.905,16.459-7.823c8.173-1.129,16.822,1.654,22.821,7.339
                c0.901,0.852,1.746,1.794,2.499,2.79c3.053-1.71,6.551-2.629,10.052-2.417c7.494,0.468,14.426,5.983,16.536,13.184
                c5.041-1.646,11.015-0.798,14.317,3.353C652.675,119.912,653.471,125.745,651.978,130.834z"/>
              <path style="fill:#734641;" d="M652.444,128.797c-0.119,0.692-0.274,1.365-0.465,2.037
                c-1.493,5.071-5.093,9.402-9.495,12.334c1.169,2.589,1.219,5.583,0.342,8.29l-0.201-0.003
                c-4.944-0.141-9.744-5.408-7.711-9.924c-1.291,2.3-5.114,1.609-6.562-0.583c-0.893-1.399-1.144-3.045-1.139-4.724
                c-1.192,3.031-5.09,5.186-8.322,3.992c-3.341-1.232-5.095-5.107-4.645-8.623c-2.621,6.151-9.287,10.53-16.034,10.11
                c-7.658-0.488-14.465-7.115-15.145-14.771c-2.093,7.563-8.692,13.678-16.378,15.214c-7.686,1.537-16.129-1.572-20.972-7.752
                c-0.501,4.574-1.003,9.239-2.813,13.466c-1.81,4.227-5.165,8.032-9.598,9.248c-1.154,0.313-2.378,0.424-3.581,0.298
                c-1.042-2.569-0.983-5.507,0.635-7.711c-3.839,0.477-8.108-2.338-8.547-6.176c-0.846-7.475,3.308-9.7,6.321-11.173
                c-3.738-2.935-5.806-7.781-5.613-12.505c0.037-1.368,0.292-2.697,0.73-3.987c1.977-5.794,7.839-10.021,13.971-10.064
                c1.331-6.57,6.791-12.116,13.326-13.577c6.443-1.427,11.751,2.789,16.144,7.138c4.624-3.185,10.438-7.905,16.459-7.823
                c8.173-1.129,16.822,1.654,22.821,7.339c0.901,0.852,1.746,1.794,2.499,2.79c3.053-1.71,6.551-2.629,10.052-2.417
                c7.494,0.468,14.426,5.983,16.536,13.184c5.041-1.646,11.015-0.798,14.317,3.353
                C652.245,119.377,653.218,124.245,652.444,128.797z"/>
              <path style="fill:#965C51;" d="M652.444,128.797c-0.89-1.618-2.02-3.076-3.408-4.317c-5.228-4.671-14.312-4.959-18.875,0.362
                c0.487-6.217-3.533-12.513-9.398-14.674c-5.846-2.179-13.011-0.014-16.694,5.009c-0.811-8.753-8.426-16.376-17.192-17.208
                c-8.749-0.831-17.664,5.233-20.098,13.685c-1.614-6.118-8.969-9.996-14.911-7.869c-5.96,2.127-9.186,9.802-6.564,15.55
                c-4.854-2.676-10.583-4.087-15.984-2.883c-2.471,0.55-4.86,1.74-6.799,3.392c0.037-1.368,0.292-2.697,0.73-3.987
                c1.977-5.794,7.839-10.021,13.971-10.064c1.331-6.57,6.791-12.116,13.326-13.577c6.443-1.427,11.751,2.789,16.144,7.138
                c4.624-3.185,10.438-7.905,16.459-7.823c8.173-1.129,16.822,1.654,22.821,7.339c0.901,0.852,1.746,1.794,2.499,2.79
                c3.053-1.71,6.551-2.629,10.052-2.417c7.494,0.468,14.426,5.983,16.536,13.184c5.041-1.646,11.015-0.798,14.317,3.353
                C652.245,119.377,653.218,124.245,652.444,128.797z"/>
            </g>
          </g>
          <path style="fill:#EA852A;" d="M596.402,281.487c0,2.038-1.652,3.691-3.691,3.691c-2.038,0-3.691-1.652-3.691-3.691
            c0-2.038,1.652-3.691,3.691-3.691C594.749,277.796,596.402,279.448,596.402,281.487z"/>
          <path style="fill:#EA852A;" d="M596.801,293.819c0,2.038-1.653,3.691-3.691,3.691c-2.038,0-3.691-1.653-3.691-3.691
            c0-2.038,1.653-3.691,3.691-3.691C595.149,290.128,596.801,291.781,596.801,293.819z"/>
          <path style="fill:#EA852A;" d="M597.201,306.152c0,2.038-1.652,3.691-3.691,3.691c-2.038,0-3.691-1.652-3.691-3.691
            s1.652-3.691,3.691-3.691C595.548,302.461,597.201,304.113,597.201,306.152z"/>
        </g>
        <g>
          <g>
            <g>
              <polygon style="fill:#24535B;" points="553.725,306.88 552.995,317.248 549.814,361.878 549.495,366.205 549.216,370.34
                548.897,374.667 548.594,378.796 548.299,383.129 547.908,388.57 545.827,417.14 616.999,422.217 635.751,423.555
                643.626,313.295 637.861,312.888 637.466,312.859 632.742,312.511 624.873,311.957 623.387,311.859 618.665,311.511
                618.516,311.506 613.768,311.154 613.764,311.178 604.413,310.502 599.69,310.154 587.668,309.291 587.663,309.315
                562.581,307.507 559.735,307.311"/>
              <rect x="620.912" y="312.48" transform="matrix(0.9975 0.0712 -0.0712 0.9975 27.7792 -43.9386)" style="fill:#24535B;" width="18.801" height="110.54"/>
              <rect x="564.357" y="325.128" transform="matrix(0.9975 0.0712 -0.0712 0.9975 25.1513 -41.0031)" style="fill:#F9F6EF;" width="46.951" height="14.463"/>
              <rect x="566.742" y="384.069" transform="matrix(0.9975 0.0712 -0.0712 0.9975 28.9777 -40.5936)" style="fill:#FFB600;" width="34.49" height="4.339"/>
              <rect x="566.14" y="392.503" transform="matrix(0.9975 0.0712 -0.0712 0.9975 29.5765 -40.5293)" style="fill:#FFB600;" width="34.49" height="4.339"/>
              <rect x="565.538" y="400.937" transform="matrix(0.9975 0.0712 -0.0712 0.9975 30.1742 -40.4635)" style="fill:#FFB600;" width="34.49" height="4.339"/>
            </g>
          </g>
          <polygon style="fill:#24535B;" points="643.628,313.305 637.863,312.898 637.468,312.868 632.744,312.521 624.876,311.967
            623.39,311.869 618.667,311.521 618.517,311.516 613.77,311.164 613.766,311.188 604.416,310.511 599.693,310.164
            587.671,309.301 587.666,309.325 562.584,307.517 559.738,307.321 553.727,306.89 552.997,317.257 549.816,361.887
            549.498,366.214 549.218,370.349 548.9,374.677 548.596,378.806 548.302,383.138 547.91,388.58 547.885,388.575
            545.828,417.145 540.178,416.786 538.094,416.668 542.755,341.973 542.76,341.949 544.288,317.262 545.187,302.813
            545.344,300.411 548.181,300.655 574.203,302.777 587.658,303.878 599.684,304.842 604.422,305.243 613.757,305.991
            618.494,306.392 619.333,306.461 624.052,306.832 633.382,307.605 636.937,307.893 638.017,308.763"/>
          <polygon style="fill:#F9F6EF;" points="637.863,312.898 637.468,312.868 632.744,312.521 624.876,311.967 623.39,311.869
            618.667,311.521 618.517,311.516 613.766,311.188 604.416,310.511 599.693,310.164 587.671,309.301 587.666,309.325
            562.584,307.517 559.738,307.321 553.727,306.89 552.997,317.257 549.792,361.882 549.816,361.887 549.498,366.214
            549.194,370.344 548.9,374.677 548.596,378.806 548.277,383.133 547.885,388.575 545.828,417.145 540.178,416.786
            548.177,317.267 549.369,303.228 587.655,306.261 599.706,307.23 604.424,307.602 613.759,308.35 618.501,308.727
            619.046,308.761 623.764,309.133 633.075,309.877 635.299,310.048 637.516,312.502"/>
        </g>
        <g>
          <g>
            <g>
              <polygon style="fill:#7FB59E;" points="546.734,341.036 550.164,350.847 564.893,393.096 566.312,397.197 567.69,401.105
                569.109,405.206 570.463,409.119 571.906,413.214 573.699,418.367 583.086,445.43 650.464,421.946 668.216,415.758
                631.842,311.373 626.386,313.28 626.012,313.409 621.536,314.957 614.09,317.561 612.686,318.058 608.211,319.607
                608.072,319.661 603.573,321.215 603.578,321.239 594.722,324.316 590.247,325.864 578.864,329.827 578.869,329.851
                555.117,338.11 552.425,339.055"/>
              <rect x="631.75" y="311.384" transform="matrix(0.9443 -0.3291 0.3291 0.9443 -84.9498 231.4221)" style="fill:#62967E;" width="18.8" height="110.54"/>
              <rect x="564.662" y="343.718" transform="matrix(0.9443 -0.3291 0.3291 0.9443 -82.7354 213.1062)" style="fill:#F9F6EF;" width="46.951" height="14.463"/>
              <rect x="588.669" y="399.787" transform="matrix(0.9443 -0.3291 0.3291 0.9443 -98.5315 221.7978)" style="fill:#62967E;" width="34.49" height="4.339"/>
              <rect x="591.452" y="407.771" transform="matrix(0.9443 -0.3291 0.3291 0.9443 -101.0042 223.1584)" style="fill:#62967E;" width="34.49" height="4.339"/>
              <rect x="594.235" y="415.756" transform="matrix(0.9443 -0.3291 0.3291 0.9443 -103.4769 224.519)" style="fill:#62967E;" width="34.49" height="4.339"/>
            </g>
          </g>
          <polygon style="fill:#62967E;" points="631.848,311.382 626.393,313.288 626.018,313.417 621.542,314.966 614.096,317.569
            612.692,318.066 608.217,319.615 608.078,319.67 603.578,321.223 603.583,321.247 594.728,324.324 590.253,325.872
            578.87,329.834 578.875,329.859 555.123,338.117 552.431,339.063 546.74,341.044 550.169,350.855 564.899,393.104
            566.318,397.205 567.696,401.113 569.115,405.214 570.469,409.126 571.912,413.222 573.704,418.375 573.68,418.38
            583.089,445.435 577.758,447.34 575.798,448.055 550.537,377.606 550.532,377.582 542.173,354.304 537.284,340.677
            536.478,338.409 539.18,337.511 563.92,329.169 576.713,324.859 588.14,320.987 592.65,319.482 601.52,316.478 606.03,314.973
            606.828,314.703 611.308,313.179 620.184,310.199 623.563,309.057 624.899,309.429"/>
          <polygon style="fill:#F9F6EF;" points="626.393,313.288 626.018,313.417 621.542,314.966 614.096,317.569 612.692,318.066
            608.217,319.615 608.078,319.67 603.583,321.247 594.728,324.324 590.253,325.872 578.87,329.834 578.875,329.859
            555.123,338.117 552.431,339.063 546.74,341.044 550.169,350.855 564.874,393.109 564.899,393.104 566.318,397.205
            567.672,401.118 569.115,405.214 570.469,409.126 571.888,413.227 573.68,418.38 583.089,445.435 577.758,447.34
            545.746,352.77 541.289,339.405 577.653,327.049 589.105,323.173 593.585,321.648 602.455,318.644 606.96,317.114
            607.474,316.93 611.954,315.406 620.8,312.407 622.911,311.684 625.917,313.061"/>
        </g>
        <g>
          <path style="fill:#EFBD65;" d="M652.673,259.704c0,0,19.473,7.018,25.168,10.893c6.761,4.601,31.111,55.196,31.111,55.196
            l-51.655,25.679L652.673,259.704z"/>
          <g>
            <g>
              <g>
                <g>
                  <g>
                    <g>
                      <path style="fill:#F3A080;" d="M585.648,369.407c-1.276,3.591,24.2,9.567,24.2,9.567l0.938,7.168l-10.859-1.477
                        l-14.995,5.64c0,0-0.207,3.095-0.261,6.899c-0.021,0.356-0.024,0.721,0.007,1.056c-0.015,0.036-0.005,0.063,0.006,0.089
                        c-0.002,0.106,0.015,0.221,0.013,0.328c-0.026,0.419-0.013,0.898-0.002,1.332c-0.004,1.847,0.105,3.785,0.302,5.46
                        c0.022,0.202,0.036,0.424,0.04,0.619c0.165,1.037,0.351,1.975,0.58,2.76c0.242,0.854,0.543,1.519,0.978,1.917
                        l12.342-1.79c0,0,12.61,11.717,15.154,12.315c1,0.228,5.321-1.2,10.141-2.997c1.708-0.635,3.429-1.351,5.107-2.02
                        c0,0,0.044-0.003,0.14-0.027c0.579-0.251,1.194-0.487,1.783-0.711l0.008-0.018l-0.026-0.398l-0.155-3.204l-0.059-1.594
                        l-0.058-1.293l-0.012-0.585l-0.004-0.604l-0.717-17.394c-0.226-0.332-0.452-0.663-0.706-1.028
                        c-0.888-1.212-1.966-2.634-3.175-4.153c-0.771-0.927-1.592-1.939-2.438-2.941c-3.099-3.67-6.713-7.341-10.099-9.563
                        c-1.437-0.927-2.833-1.645-4.121-1.907C600.707,368.825,586.944,365.868,585.648,369.407z"/>
                    </g>
                  </g>
                </g>
              </g>
              <g>
                <g>
                  <path style="fill:#B54B57;" d="M584.677,397.223c-0.01,0.476-0.006,0.962-0.008,1.454c0.105-0.019,0.212-0.053,0.315-0.082
                    c1.79-0.5,4.221-1.139,6.858-1.771c2.65-0.622,5.073-1.019,6.928-1.113c0.467-0.018,0.886-0.039,1.257-0.05
                    c0.381,0.015,0.709,0.033,0.975,0.04c0.549,0.018,0.854,0.028,0.854,0.028s-0.269-0.146-0.783-0.402
                    c-0.259-0.12-0.578-0.278-0.957-0.437c-0.38-0.133-0.825-0.27-1.316-0.416c-1.977-0.549-4.868-0.764-7.767-0.08
                    C588.348,395.035,586.175,396.194,584.677,397.223z"/>
                </g>
              </g>
              <g>
                <path style="fill:#B54B57;" d="M584.992,405.469c0.013,0.202,0.043,0.408,0.061,0.605c0.501-0.138,1.154-0.331,1.943-0.554
                  c1.789-0.5,4.22-1.139,6.862-1.776c2.645-0.617,5.069-1.014,6.924-1.108c0.467-0.018,0.892-0.034,1.267-0.05
                  c0.377,0.02,0.703,0.028,0.971,0.046c0.543,0.014,0.858,0.022,0.858,0.022s-0.275-0.151-0.794-0.401
                  c-0.254-0.126-0.578-0.278-0.953-0.443c-0.384-0.127-0.819-0.266-1.32-0.41c-1.966-0.55-4.858-0.765-7.763-0.086
                  c-2.891,0.699-5.187,1.989-6.697,3.073C585.793,404.791,585.344,405.16,584.992,405.469z"/>
              </g>
            </g>
          </g>
          <path style="fill:#F3A080;" d="M719.05,383.632c-8.72,12.48-87.78,31.88-87.78,31.88l-1.03-25.07l44.06-22.63l-3.02-11.06
            l-2.95-10.77l35.09-17.24c1.75,4.04,3.36,8.1,4.82,12.09C716.27,362.712,719.95,382.342,719.05,383.632z"/>
        </g>
        <g>
          <path style="fill:#EA852A;" d="M661.45,337.692l-0.48,24.97c0,0-32.35-104.65-29.97-108.79c0.98-1.7,4.63-1.68,8.83-0.79
            c6.03,1.28,13.19,4.36,15.17,6.69c2.01,2.38,3.94,30.07,5.16,51.77C660.96,325.932,661.45,337.692,661.45,337.692z"/>
          <path style="opacity:0.44;fill:#080C0A;" d="M661.45,337.692l-0.48,24.97c0,0-32.35-104.65-29.97-108.79
            c0.98-1.7,4.63-1.68,8.83-0.79c2.09,12.19,8.92,47.06,20.33,58.46C660.96,325.932,661.45,337.692,661.45,337.692z"/>
        </g>
        <g>
          <path style="fill:#EA852A;" d="M523.819,336.169l0.922,24.957c0,0,30.491-105.207,28.038-109.304
            c-1.01-1.682-4.659-1.598-8.843-0.633c-6.006,1.387-13.111,4.593-15.049,6.958c-1.968,2.415-3.407,30.135-4.242,51.853
            C524.1,324.402,523.819,336.169,523.819,336.169z"/>
          <path style="opacity:0.44;fill:#080C0A;" d="M523.819,336.169l0.922,24.957c0,0,30.491-105.207,28.038-109.304
            c-1.01-1.682-4.659-1.598-8.843-0.633c-1.874,12.225-8.085,47.211-19.291,58.811
            C524.1,324.402,523.819,336.169,523.819,336.169z"/>
        </g>
      </g>
      <path style="fill:#F9F6EF;" d="M570.183,213.171l39.271-5.032c0,0-2.896,15.764-18.926,17.319
        C574.498,227.014,570.183,213.171,570.183,213.171z"/>
      <g>
        <path style="fill:#F9F6EF;" d="M633.715,171.728l-5.468-0.262c0,0-21.659-2.352-36.441,0.196c0,0-0.177,5.347-0.24,10.896
          c-1.856-0.789-5.113-2.113-6.074-2.108c-0.786,0.003-2.914,0.913-4.586,1.688c0.027-5.408-0.053-10.511-0.053-10.511
          c-14.736-2.805-36.432-0.83-36.432-0.83l-5.472,0.168c0,0-0.214,5.069,0.23,5.099c0.422,0.027,4.797,2.791,5.216,3.057
          c0.01,5.99,0.097,13.191,0.44,14.255c0.602,1.863,6.444,6.229,9.767,7.269c3.324,1.042,10.153,1.612,12.305,1.489
          c2.151-0.122,12.808-4.199,13.523-8.145c0.229-1.262,0.354-4.009,0.419-7.157c1.022-0.789,2.297-1.544,3.58-1.632
          c2.01-0.139,5.362,1.787,7.127,2.904c0.026,2.613,0.106,4.83,0.285,5.926c0.647,3.956,11.232,8.219,13.38,8.378
          c2.149,0.161,8.987-0.29,12.328-1.275c3.341-0.982,9.258-5.245,9.892-7.098c0.362-1.058,0.573-8.257,0.687-14.245
          c0.424-0.26,4.846-2.946,5.269-2.966C633.84,176.801,633.715,171.728,633.715,171.728z M566.548,197.88
          c-0.637,0.034-2.936-0.057-5.704-0.392c-2.109-0.255-3.919-0.59-4.966-0.917c-2.032-0.636-5.795-3.371-6.955-4.682
          c-0.205-2.287-0.286-9.669-0.256-17.115c5.862-0.352,17.359-0.788,27.07,0.387c0.298,0.036,0.593,0.073,0.888,0.113
          c0.056,6.664,0.001,15.173-0.358,17.706C575.039,194.704,568.508,197.599,566.548,197.88z M616.342,197.036
          c-1.053,0.309-2.869,0.613-4.981,0.831c-2.773,0.288-5.073,0.337-5.71,0.294c-1.955-0.315-8.434-3.324-9.632-5.069
          c-0.315-2.539-0.223-11.047-0.051-17.71c0.295-0.034,0.592-0.066,0.89-0.097c9.73-1.006,21.219-0.37,27.073,0.083
          c-0.099,7.446-0.309,14.825-0.553,17.108C622.195,193.767,618.385,196.436,616.342,197.036z"/>
      </g>
      <path style="fill:#EA7C6F;" d="M708.24,340.832l-36.96,15.92l-2.95-10.77l35.09-17.24
        C705.17,332.782,706.78,336.842,708.24,340.832z"/>
      <path style="fill:#F3A080;" d="M494.931,300.411"/>
    </g>
    <g>
      <g>
        <g>
          <polygon style="fill:#EFBD65;" points="414.833,232.294 381.268,286.398 369.558,269.757 368.704,268.548 354.589,280.058
            360.056,260.291 343.675,243.736"/>
          <path style="fill:#EA852A;" d="M414.798,232.311l-46.094,36.237l0,0l-14.116,11.51l5.468-19.767
            C363.922,259.397,413.257,233.136,414.798,232.311z"/>
        </g>
        <g>
          <polygon style="fill:#F9F6EF;" points="637.339,41.19 668.309,96.82 680.792,80.75 681.702,79.583 695.258,91.747
            690.731,71.744 707.876,55.982"/>
          <path style="fill:#F7E4D9;" d="M637.372,41.208l44.33,38.375l0,0l13.556,12.164l-4.528-20.003
            C686.912,70.669,638.873,42.105,637.372,41.208z"/>
        </g>
      </g>
    </g>
  </g>
</svg>
