<?xml version="1.0" encoding="utf-8"?>
<svg xmlns="http://www.w3.org/2000/svg" viewBox="0 0 750 500">
  <style>
    @keyframes float {
      0%, 100% { transform: translateY(0); }
      50% { transform: translateY(-10px); }
    }
    @keyframes breathe {
      0%, 100% { transform: scale(1); }
      50% { transform: scale(1.02); }
    }
    @keyframes pulse {
      0%, 100% { opacity: 1; }
      50% { opacity: 0.5; }
    }
    @keyframes draw-line {
      0% { stroke-dashoffset: 1000; }
      100% { stroke-dashoffset: 0; }
    }
    @keyframes slide-up {
      0% { transform: translateY(20px); opacity: 0; }
      100% { transform: translateY(0); opacity: 1; }
    }
    .float { animation: float 3s ease-in-out infinite; }
    .breathe { animation: breathe 4s ease-in-out infinite; }
    .pulse { animation: pulse 2s ease-in-out infinite; }
    .draw-line { stroke-dasharray: 1000; animation: draw-line 3s ease-out forwards; }
    .slide-up { animation: slide-up 1s ease-out forwards; }
  </style>
  <!-- DECORATIVE DOTS / FLOWERS -->
  <g class="float">
    <circle style="fill:#C0D0FC;" cx="386.592" cy="73.51" r="8.816"/>
    <ellipse transform="matrix(0.9239 -0.3827 0.3827 0.9239 -22.5834 140.7514)" style="fill:#C0D0FC;" cx="342.51" cy="127.143" rx="8.816" ry="8.816"/>
    <path style="fill:#C0D0FC;" d="M474.755,24.653c0,2.434-1.974,4.408-4.408,4.408c-2.435,0-4.408-1.974-4.408-4.408c0-2.435,1.974-4.408,4.408-4.408C472.781,20.245,474.755,22.219,474.755,24.653z"/>
    <path style="fill:#C0D0FC;" d="M681.939,75.347c0,2.435-1.974,4.408-4.408,4.408c-2.435,0-4.408-1.974-4.408-4.408c0-2.434,1.974-4.408,4.408-4.408C679.965,70.939,681.939,72.912,681.939,75.347z"/>
    <path style="fill:#C0D0FC;" d="M36.143,210.163c0,2.434-1.974,4.408-4.408,4.408s-4.408-1.974-4.408-4.408c0-2.435,1.974-4.408,4.408-4.408S36.143,207.729,36.143,210.163z"/>
    <path style="fill:#C0D0FC;" d="M179.408,467.306c0,2.435-1.974,4.408-4.408,4.408s-4.408-1.974-4.408-4.408c0-2.434,1.974-4.408,4.408-4.408S179.408,464.872,179.408,467.306z"/>
    <path style="fill:#C0D0FC;" d="M726.755,285.102c0,2.435-1.974,4.408-4.408,4.408c-2.434,0-4.408-1.974-4.408-4.408c0-2.434,1.974-4.408,4.408-4.408C724.781,280.694,726.755,282.668,726.755,285.102z"/>
    <circle style="fill:#C0D0FC;" cx="627.939" cy="55.51" r="8.816"/>
    <ellipse transform="matrix(0.9536 -0.301 0.301 0.9536 -78.2942 226.6156)" style="fill:#C0D0FC;" cx="696.265" cy="367.388" rx="8.816" ry="8.816"/>
    <ellipse transform="matrix(0.671 -0.7415 0.7415 0.671 -280.7675 225.4406)" style="fill:#C0D0FC;" cx="113.653" cy="429.102" rx="8.816" ry="8.816"/>
    <ellipse transform="matrix(0.7071 -0.7071 0.7071 0.7071 -112.465 183.3426)" style="fill:#C0D0FC;" cx="165.082" cy="227.429" rx="8.816" ry="8.816"/>
  </g>
  <!-- DECORATIVE BANNER RECTANGLES -->
  <g>
    <rect x="56.43" y="139.708" style="fill:#F76DB6;" width="45.956" height="2.677"/>
    <rect x="179.652" y="139.708" style="fill:#F76DB6;" width="45.956" height="2.677"/>
  </g>
  <!-- YELLOW STAR / SUN DECORATION -->
  <g class="pulse">
    <path style="fill:#FBBD73;" d="M551.606,54.287c0,14.746-17.545,26.703-39.198,26.703c-4.68,0-9.167-0.563-13.335-1.588l-13.52,8.066l5.319-10.873c-10.638-4.773-17.662-12.982-17.662-22.309c0-14.747,17.553-26.695,39.198-26.695C534.062,27.592,551.606,39.54,551.606,54.287z"/>
    <path style="fill:#FFFFFF;" d="M502.927,54.225c0,3.652-2.96,6.612-6.612,6.612c-3.652,0-6.612-2.96-6.612-6.612c0-3.652,2.96-6.612,6.612-6.612C499.967,47.612,502.927,50.573,502.927,54.225z"/>
    <path style="fill:#FFFFFF;" d="M519.02,54.408c0,3.652-2.96,6.612-6.612,6.612c-3.652,0-6.612-2.96-6.612-6.612c0-3.652,2.96-6.612,6.612-6.612C516.06,47.796,519.02,50.756,519.02,54.408z"/>
    <path style="fill:#FFFFFF;" d="M535.664,54.225c0,3.652-2.96,6.612-6.612,6.612c-3.652,0-6.612-2.96-6.612-6.612c0-3.652,2.96-6.612,6.612-6.612C532.704,47.612,535.664,50.573,535.664,54.225z"/>
  </g>
  <!-- LAPTOP / TEACHING MONITOR -->
  <g>
    <g>
      <path style="fill:#6C93F9;" d="M576.333,463.252H242.262c-14.951,0-27.184-12.233-27.184-27.184V190.856c0-14.951,12.233-27.184,27.184-27.184h334.071c14.951,0,27.184,12.233,27.184,27.184v245.212C603.517,451.019,591.284,463.252,576.333,463.252z"/>
      <path style="fill:#E8EFFC;" d="M595.663,190.252v246.419c0,9.952-8.138,18.09-18.09,18.09h-336.55c-9.952,0-18.09-8.138-18.09-18.09V190.252c0-9.952,8.138-18.09,18.09-18.09h336.55C587.525,172.162,595.663,180.3,595.663,190.252z"/>
      <path style="fill:#D2E1F7;" d="M595.663,247.148v117.94c-51.298-16.561-128.471-34.832-205.643-28.224c-71.557,6.134-129.119,21.598-167.087,34.599V193.595c42.374,26.824,112.722,60.438,206.118,67.108C507.208,266.284,561.038,257.541,595.663,247.148z"/>
      <path style="fill:#231F20;" d="M595.658,426.351v10.32c0,9.95-8.13,18.09-18.09,18.09h-336.55c-9.95,0-18.09-8.14-18.09-18.09v-10.32H595.658z"/>
      <path style="fill:#FFFFFF;" d="M258.68,439.023l-9.362-5.243c-1.03-0.577-2.301,0.168-2.301,1.349v10.86c0,1.201,1.311,1.944,2.341,1.325l9.362-5.617C259.738,441.086,259.716,439.603,258.68,439.023z"/>
      <line style="fill:none;stroke:#FFFFFF;stroke-width:2.8347;stroke-linecap:round;stroke-miterlimit:10;" x1="271.012" y1="440.559" x2="576.304" y2="440.559"/>
      <line style="fill:none;stroke:#F76DB6;stroke-width:5.6693;stroke-linecap:round;stroke-miterlimit:10;" x1="271.012" y1="440.559" x2="379.334" y2="440.559"/>
      <ellipse transform="matrix(0.9247 -0.3807 0.3807 0.9247 -139.1559 177.5866)" style="fill:#F76DB6;" cx="379.334" cy="440.558" rx="8.539" ry="8.539"/>
      <path style="fill:#FFFFFF;" d="M340.512,176.922h-95.205c-10.516,0-19.041,8.525-19.041,19.041v113.294l7.219-100.259c0.785-10.901,9.155-19.732,19.998-21.1L340.512,176.922z"/>
    </g>
  </g>
  <!-- CERTIFICATE PANEL -->
  <g class="slide-up">
    <path style="opacity:0.5;fill:#7DBEEA;" d="M718.124,313.911v98.203c0,6.688-5.466,12.162-12.153,12.162H567.54c-6.688,0-12.153-5.474-12.153-12.162v-98.203c0-6.688,5.466-12.162,12.153-12.162h138.431C712.658,301.749,718.124,307.224,718.124,313.911z"/>
    <path style="fill:#6C93F9;" d="M718.124,313.911v5.822H555.386v-5.822c0-6.688,5.466-12.162,12.153-12.162h138.431C712.658,301.749,718.124,307.224,718.124,313.911z"/>
    <circle style="fill:#FFFFFF;" cx="687.709" cy="310.741" r="4.496"/>
    <circle style="fill:#FFFFFF;" cx="699.687" cy="310.741" r="4.496"/>
    <circle style="fill:#FFFFFF;" cx="711.664" cy="310.741" r="4.496"/>
    <g>
      <path style="fill:none;stroke:#FFFFFF;stroke-width:2;stroke-miterlimit:10;" d="M626.156,392.468c-2.032,11.879-13.2,19.888-24.945,17.879c-11.737-2.007-19.609-13.273-17.577-25.152c1.592-9.311,8.805-16.24,17.497-17.827l3.997-23.373c-1.31-0.999-2.004-2.125-1.821-3.196c0.406-2.376,5.002-3.57,10.255-2.672c5.262,0.9,9.199,3.554,8.793,5.929c-0.183,1.071-1.219,1.892-2.78,2.409l-3.997,23.373C623.257,374.227,627.748,383.157,626.156,392.468z"/>
      <path style="fill:none;stroke:#FFFFFF;stroke-width:2;stroke-miterlimit:10;" d="M586.14,383.254c4.925-1.056,9.999-1.137,15.286,3.089c5.287,4.225,15.143,6.702,22.7,1.352"/>
      <rect x="640.496" y="337.915" style="fill:none;stroke:#FFFFFF;stroke-width:2;stroke-miterlimit:10;" width="48.012" height="7.482"/>
      <rect x="629.896" y="354.439" style="fill:none;stroke:#FFFFFF;stroke-width:2;stroke-miterlimit:10;" width="43.335" height="6.859"/>
      <rect x="662.32" y="368.157" style="fill:none;stroke:#FFFFFF;stroke-width:2;stroke-miterlimit:10;" width="46.765" height="7.482"/>
      <rect x="641.12" y="389.669" style="fill:none;stroke:#FFFFFF;stroke-width:2;stroke-miterlimit:10;" width="10.912" height="10.288"/>
      <rect x="659.826" y="397.775" style="fill:none;stroke:#FFFFFF;stroke-width:2;stroke-miterlimit:10;" width="10.912" height="10.912"/>
      <rect x="676.661" y="389.98" style="fill:none;stroke:#FFFFFF;stroke-width:2;stroke-miterlimit:10;" width="10.6" height="10.288"/>
      <rect x="566.608" y="331.68" style="fill:none;stroke:#FFFFFF;stroke-width:2;stroke-miterlimit:10;" width="23.694" height="7.171"/>
      <rect x="563.49" y="350.386" style="fill:none;stroke:#FFFFFF;stroke-width:2;stroke-miterlimit:10;" width="12.782" height="10.912"/>
    </g>
  </g>
  <!-- CHART / GRAPH AREA -->
  <g class="pulse">
    <path style="opacity:0.5;fill:#7DBEEA;" d="M703.955,118.186V222.91c0,7.132-5.828,12.969-12.96,12.969H543.371c-7.132,0-12.96-5.838-12.96-12.969V118.186c0-7.132,5.829-12.969,12.96-12.969h147.623C698.126,105.216,703.955,111.054,703.955,118.186z"/>
    <path style="fill:#6C93F9;" d="M703.955,118.186v6.209H530.411v-6.209c0-7.132,5.829-12.969,12.96-12.969h147.623C698.126,105.216,703.955,111.054,703.955,118.186z"/>
    <circle style="fill:#FFFFFF;" cx="671.52" cy="114.805" r="4.794"/>
    <circle style="fill:#FFFFFF;" cx="679.499" cy="114.805" r="4.794"/>
    <circle style="fill:#FFFFFF;" cx="697.066" cy="114.805" r="4.795"/>
    <g>
      <path style="fill:none;stroke:#FFFFFF;stroke-width:2;stroke-miterlimit:10;" d="M539.154,176.061c42.69-11.306,46.099,37.346,87.511,26.858c41.412-10.487,22.413-56.181,58.242-65.255"/>
      <path style="fill:none;stroke:#FFFFFF;stroke-width:2;stroke-miterlimit:10;" d="M550.467,220.731c42.926-10.376,22.767-54.785,64.179-65.273c41.412-10.488,46.452,38.741,82.281,29.668"/>
      <line style="fill:none;stroke:#FFFFFF;stroke-width:2;stroke-miterlimit:10;" x1="543.305" y1="175.505" x2="554.46" y2="219.555"/>
      <line style="fill:none;stroke:#FFFFFF;stroke-width:2;stroke-miterlimit:10;" x1="553.235" y1="174.311" x2="563.683" y2="215.568"/>
      <line style="fill:none;stroke:#FFFFFF;stroke-width:2;stroke-miterlimit:10;" x1="563.926" y1="176.119" x2="572.138" y2="208.544"/>
      <line style="fill:none;stroke:#FFFFFF;stroke-width:2;stroke-miterlimit:10;" x1="575.846" y1="182.779" x2="579.46" y2="197.049"/>
      <line style="fill:none;stroke:#FFFFFF;stroke-width:2;stroke-miterlimit:10;" x1="617.903" y1="154.633" x2="630.001" y2="202.405"/>
      <line style="fill:none;stroke:#FFFFFF;stroke-width:2;stroke-miterlimit:10;" x1="627.991" y1="154.059" x2="639.067" y2="197.798"/>
      <line style="fill:none;stroke:#FFFFFF;stroke-width:2;stroke-miterlimit:10;" x1="638.785" y1="156.277" x2="647.418" y2="190.365"/>
      <line style="fill:none;stroke:#FFFFFF;stroke-width:2;stroke-miterlimit:10;" x1="650.916" y1="163.768" x2="654.529" y2="178.038"/>
      <line style="fill:none;stroke:#FFFFFF;stroke-width:2;stroke-miterlimit:10;" x1="683.435" y1="138.368" x2="695.297" y2="185.209"/>
      <line style="fill:none;stroke:#FFFFFF;stroke-width:2;stroke-miterlimit:10;" x1="674.675" y1="141.576" x2="685.894" y2="185.881"/>
      <line style="fill:none;stroke:#FFFFFF;stroke-width:2;stroke-miterlimit:10;" x1="667.191" y1="149.828" x2="675.695" y2="183.407"/>
      <line style="fill:none;stroke:#FFFFFF;stroke-width:2;stroke-miterlimit:10;" x1="660.745" y1="162.172" x2="664.173" y2="175.71"/>
      <line style="fill:none;stroke:#FFFFFF;stroke-width:2;stroke-miterlimit:10;" x1="609.956" y1="157.141" x2="621.818" y2="203.982"/>
      <line style="fill:none;stroke:#FFFFFF;stroke-width:2;stroke-miterlimit:10;" x1="601.352" y1="160.97" x2="612.415" y2="204.654"/>
      <line style="fill:none;stroke:#FFFFFF;stroke-width:2;stroke-miterlimit:10;" x1="593.712" y1="168.602" x2="602.216" y2="202.18"/>
      <line style="fill:none;stroke:#FFFFFF;stroke-width:2;stroke-miterlimit:10;" x1="586.935" y1="179.641" x2="590.694" y2="194.483"/>
    </g>
  </g>
  <!-- PROGRESS BARS -->
  <g>
    <path style="opacity:0.5;fill:#7DBEEA;" d="M240.616,239.192v115.71c0,7.88-6.44,14.33-14.32,14.33H63.186c-7.88,0-14.32-6.45-14.32-14.33v-115.71c0-7.88,6.44-14.33,14.32-14.33h163.11C234.176,224.862,240.616,231.312,240.616,239.192z"/>
    <path style="fill:#6C93F9;" d="M240.616,237.722v6.86H48.866v-6.86c0-7.88,6.44-14.33,14.32-14.33h163.11C234.176,223.392,240.616,229.842,240.616,237.722z"/>
    <circle style="fill:#FFFFFF;" cx="199.481" cy="233.987" r="5.298"/>
    <circle style="fill:#FFFFFF;" cx="213.594" cy="233.987" r="5.298"/>
    <circle style="fill:#FFFFFF;" cx="227.707" cy="233.987" r="5.297"/>
    <g>
      <polygon style="fill:none;stroke:#FFFFFF;stroke-width:2;stroke-miterlimit:10;" points="126.416,281.802 102.007,281.802 89.802,302.94 102.007,324.079 126.416,324.079 138.621,302.94"/>
      <polygon style="fill:none;stroke:#FFFFFF;stroke-width:2;stroke-miterlimit:10;" points="163.03,302.94 138.621,302.94 126.416,324.079 138.621,345.218 163.03,345.218 175.234,324.079"/>
      <line style="fill:none;stroke:#FFFFFF;stroke-width:2;stroke-miterlimit:10;" x1="163.03" y1="302.94" x2="177.986" y2="281.434"/>
      <line style="fill:none;stroke:#FFFFFF;stroke-width:2;stroke-miterlimit:10;" x1="175.234" y1="324.079" x2="201.496" y2="324.079"/>
      <line style="fill:none;stroke:#FFFFFF;stroke-width:2;stroke-miterlimit:10;" x1="102.007" y1="281.802" x2="87.251" y2="258.659"/>
      <line style="fill:none;stroke:#FFFFFF;stroke-width:2;stroke-miterlimit:10;" x1="102.007" y1="324.079" x2="81.741" y2="348.291"/>
    </g>
  </g>
  <!-- TEACHER CHARACTER -->
  <g class="breathe">
    <path style="fill:#2F3B7F;" d="M515.398,426.351h-140.96c0.5-4.49,1.07-9.27,1.7-13.88c2.2-16.16,9.55-60.24,19.83-81.55c0,0,44.82,5.14,75.68-7.35C498.288,356.141,510.358,400.631,515.398,426.351z"/>
    <path style="fill:#4B5059;" d="M364.564,269.022c-1.469,6.061-3.306,7.714,3.122,10.837c6.428,3.123,24.245,5.694,29.571,3.306c5.327-2.388,0.367-15.061-0.918-14.878C395.054,268.471,364.564,269.022,364.564,269.022z"/>
    <path style="fill:#4B5059;" d="M521.678,281.977c-0.02,0.03-0.05,0.06-0.07,0.09c-4.6,5.51-17.27,7.53-23.7,7.16c-1.7-0.1-2.97-0.18-3.96-0.45c-2.77-0.73-3.36-2.86-4.85-10.57c0,0,29.38-9.55,29.94-9.92C519.588,267.917,526.128,276.467,521.678,281.977z"/>
    <path style="fill:#82916B;" d="M523.078,272.637c-4.28,4.93-14.52,8.54-23.01,9.48c-4.15,0.47-7.89,0.3-10.3-0.67c-7.35-2.93-8.33-12.24-8.33-12.24s-5.87,22.53-7.34,34.77c-1.47,12.25,9.3,24.49,5.38,29.88c-20.08,15.68-60.73,13.23-75.42,6.37c-14.7-6.86-10.78-6.37-9.8-17.63c0.98-11.27,2.94-13.23-6.86-46.04c-14.94-1.47-19.59-0.49-27.43-7.35c-1.28-1.12-2.09-2.72-2.52-4.69c-2.23-10.08,5.36-29.71,9.87-42.82c5.39-15.67,15.67-9.8,20.57-10.29c4.9-0.49,12.84-8.39,27.92-13.71c8.33-2.94,29.88-5.88,38.69-3.92c8.82,1.96,27.43,18.12,35.76,16.16c8.33-1.96,17.14-1.47,23.51,17.64C520.138,246.677,529.438,265.287,523.078,272.637z"/>
    <path style="fill:#232965;" d="M421.931,70.104c-10.286-8.082-26.694-3.918-31.592,7.102c-4.898,11.02,2.449,17.633-7.347,27.918s-22.041,24.49-8.816,37.714c13.224,13.225,13.224,12.735,9.061,19.837c-4.163,7.102-9.306,21.061,2.939,28.653c12.245,7.592,26.449,1.959,37.469,0.735c11.02-1.225,28.898-0.245,40.898,2.939s29.143-2.204,33.551-16.653c4.408-14.449-7.592-18.612-3.673-36.98c3.918-18.367,1.959-32.816-8.082-38.939c-10.041-6.122-12.98-10.286-16.653-21.796c-3.673-11.51-11.755-20.082-22.041-20.816C437.36,59.084,426.585,60.308,421.931,70.104z"/>
    <path style="fill:#4B5059;" d="M424.993,183.247c-6.114,2.826-13.052,9.883-13.225,17.633c-0.114,5.102,4.212,11.882,7.714,10.653c3.311-1.162,6.796-8.816,9.735-4.776c2.939,4.041,5.694,11.939,15.245,5.143c9.551-6.796,15.612-14.143,13.224-20.388C455.299,185.267,444.462,174.247,424.993,183.247z"/>
    <path style="opacity:0.45;fill:#202A67;" d="M425.727,175.9c-12.246,5.652-27.551,10.286-30.857,3.306c-3.306-6.98-4.041-19.837-2.939-26.449c1.102-6.612-8.082-13.592-11.388-22.041c-3.306-8.449,0-18,5.51-21.306c5.51-3.306,9.184-4.408,9.551-9.918c0.367-5.51,4.776-8.449,10.653-8.816c5.878-0.367,11.02-3.306,11.388-8.816c3.306,13.959,7.347,16.898,14.694,14.327c7.347-2.572,16.898-0.735,19.102,9.918c2.204,10.653,1.837,20.204,10.653,18.367c8.816-1.837,14.327,4.041,12.49,13.592s-6.612,12.122-1.837,17.633c4.775,5.51,15.061,9.551,7.714,18.367c-7.347,8.816-19.102,9.184-25.714,2.939C448.135,170.757,430.503,173.696,425.727,175.9z"/>
    <path style="fill:#FFD2D5;" d="M467.968,140.387c-1.22,7.59-5.87,12.49-12.73,9.06c-2.2,5.39-7.84,27.92-7.1,38.21c-1.23,5.39-6.13,14.94-17.64,16.41c-11.51,1.47-9.55-11.27-9.55-11.27s1.37-5.22,0.83-11.55c-0.18-2.12-0.58-4.36-1.32-6.57c-5.96,1.05-10.73-0.49-14.53-3.83c-11.19-9.86-14.06-35.33-14.61-56.17c3.18-0.25,6.12-1.23,7.35-7.59c1.22-6.37,2.69-9.55,6.86-10.29c4.16-0.73,7.34,2.45,9.55-7.59c0.49,8.57,2.2,10.77,7.1,12.49c4.9,1.71,7.59-3.92,15.18-0.98s5.63,12,7.84,23.26c2.2,11.27,10.53,8.82,15.43,6.37C465.528,127.897,469.198,132.797,467.968,140.387z"/>
    <circle style="fill:none;stroke:#231F20;stroke-width:1.4173;stroke-miterlimit:10;" cx="402.585" cy="125.39" r="12.49"/>
    <ellipse transform="matrix(0.2136 -0.9769 0.9769 0.2136 217.09 520.2735)" style="fill:none;stroke:#231F20;stroke-width:1.4173;stroke-miterlimit:10;" cx="431.697" cy="125.298" rx="12.49" ry="12.49"/>
    <path style="fill:none;stroke:#F99BA4;stroke-width:0.75;stroke-linecap:round;stroke-miterlimit:10;" d="M410.115,156.063c5.51,0.735,15.429-0.184,17.816-7.347"/>
    <path style="fill:none;stroke:#F99BA4;stroke-width:0.75;stroke-linecap:round;stroke-miterlimit:10;" d="M425.176,147.982c2.571,0,3.673,1.102,4.224,2.571"/>
    <path style="opacity:0.68;fill:#FFD2D5;" d="M466.013,136.961c-0.98-3.918-2.694-4.775-5.878-1.959c-3.184,2.816-3.918,7.837-2.082,9.796s4.286,1.102,4.653-1.592c0.367-2.694-0.49-6.857-2.204-5.388C461.972,134.267,464.176,133.9,466.013,136.961z"/>
    <path style="fill:#231F20;" d="M437.727,108.431c-4.5-2.625-8.572-2.082-11.755-0.367c-3.184,1.714-3.429,4.775-0.367,3.796c3.061-0.98,5.633-1.714,8.939-0.245c3.306,1.469,4.163,1.224,4.653,0.245C439.687,110.88,439.197,109.288,437.727,108.431z"/>
    <path style="fill:#231F20;" d="M397.687,111.247c3.326-1.109,6-1.714,9.061-0.367c3.061,1.347,3.673,1.592,4.286,0.245c0.612-1.347-0.122-3.673-4.041-4.286c-3.918-0.612-6.245-0.857-8.816,0.612C395.605,108.92,395.482,111.982,397.687,111.247z"/>
    <path style="fill:#231F20;" d="M435.646,126.369c0,1.792-1.425,3.245-3.184,3.245s-3.184-1.453-3.184-3.245c0-1.792,1.425-3.245,3.184-3.245S435.646,124.577,435.646,126.369z"/>
    <path style="fill:#231F20;" d="M407.054,126.369c0,1.792-1.425,3.245-3.184,3.245c-1.758,0-3.184-1.453-3.184-3.245c0-1.792,1.425-3.245,3.184-3.245C405.628,123.125,407.054,124.577,407.054,126.369z"/>
    <path style="fill:none;stroke:#231F20;stroke-width:1.4173;stroke-miterlimit:10;" d="M415.074,124.716c1.714-1.102,3.918,0,3.918,0"/>
    <line style="fill:none;stroke:#231F20;stroke-width:1.4173;stroke-miterlimit:10;" x1="444.217" y1="124.349" x2="467.85" y2="124.961"/>
    <path style="opacity:0.68;fill:#FFD2D5;" d="M447.038,154.957c-9.19,16.53-15.07,22.04-21.31,24.98c-1.15,0.54-2.5,0.97-3.95,1.31c-0.18-2.12-0.58-4.36-1.32-6.57c-5.96,1.05-10.73-0.49-14.53-3.83C418.858,171.727,435.608,168.667,447.038,154.957z"/>
    <path style="fill:none;stroke:#4B5059;stroke-width:1.0001;stroke-linecap:round;stroke-miterlimit:10;" d="M425.727,209.696c-2.572,10.286-9.184,28.286-7.714,60.245c1.469,31.959,11.02,52.163,7.347,71.633"/>
    <path style="fill:#4B5059;" d="M431.605,221.267c0,1.927-1.398,3.49-3.122,3.49c-1.724,0-3.122-1.563-3.122-3.49c0-1.927,1.398-3.49,3.122-3.49C430.207,217.778,431.605,219.34,431.605,221.267z"/>
    <path style="fill:#4B5059;" d="M427.748,263.329c0,1.927-1.398,3.49-3.122,3.49c-1.725,0-3.122-1.562-3.122-3.49c0-1.927,1.398-3.49,3.122-3.49C426.35,259.839,427.748,261.401,427.748,263.329z"/>
    <path style="fill:#4B5059;" d="M428.482,241.655c0,1.927-1.398,3.49-3.122,3.49c-1.724,0-3.122-1.562-3.122-3.49c0-1.927,1.398-3.49,3.122-3.49C427.085,238.165,428.482,239.728,428.482,241.655z"/>
    <path style="fill:#4B5059;" d="M429.585,289.043c0,1.927-1.398,3.49-3.122,3.49c-1.725,0-3.122-1.562-3.122-3.49s1.398-3.49,3.122-3.49C428.186,285.553,429.585,287.116,429.585,289.043z"/>
    <path style="fill:#4B5059;" d="M434.36,313.655c0,1.927-1.398,3.49-3.122,3.49c-1.724,0-3.122-1.562-3.122-3.49c0-1.927,1.398-3.49,3.122-3.49C432.962,310.165,434.36,311.728,434.36,313.655z"/>
    <path style="fill:#6C7755;" d="M500.068,282.117c-4.15,0.47-7.89,0.3-10.3-0.67c-7.35-2.93-8.33-12.24-8.33-12.24s-5.87,22.53-7.34,34.77c-1.47,12.25,9.3,24.49,5.38,29.88c-20.08,15.68-60.73,13.23-75.42,6.37c-14.7-6.86-10.78-6.37-9.8-17.63c0.98-11.27,2.94-13.23-6.86-46.04c-14.94-1.47-19.59-0.49-27.43-7.35c-1.28-1.12-2.09-2.72-2.52-4.69c2.26,1.88,5.41,3.83,9.5,4.32c9.19,1.1,11.76-4.41,20.58-43.35c-1.11,15.43,6.61,36,16.89,42.25c10.29,6.24,8.94,13.22,3.68,18.37c-5.27,5.14-8.82,9.18-7.35,18.73c1.47,9.55-1.84,17.63-2.94,23.51s18.37,9.55,33.43,12.12c15.06,2.58,33.8-5.51,36.37-9.91c2.57-4.41,0-20.94-3.68-27.92c-3.67-6.98-6.61-11.02-6.61-19.84s9.18-11.02,14.33-19.1c5.14-8.08,9.18-30.86,9.18-30.86s0.37,9.55,1.47,20.94C483.268,263.877,491.758,276.557,500.068,282.117z"/>
    <path style="fill:#4B5059;" d="M436.748,335.145c0,1.927-1.398,3.49-3.122,3.49c-1.725,0-3.122-1.562-3.122-3.49c0-1.927,1.398-3.49,3.122-3.49C435.35,331.655,436.748,333.218,436.748,335.145z"/>
    <path style="fill:#FFD2D5;" d="M364.564,269.022c0,0-6.061,30.551-7.041,38.878c-16.163-6.367-48-4.408-56.326-10.286c-8.327-5.878-10.776-19.102-14.694-23.51c-3.918-4.408-8.327-5.388-13.714-6.367c-5.388-0.98-5.878,2.449-8.327,3.428c-2.449,0.98-7.347-1.469-11.265,0.49c-3.918,1.959-5.878,4.898-0.98,9.796c-3.429,6.367-2.449,9.306,3.428,10.286c-1.469,5.388-0.49,8.571,5.388,9.061c1.959,7.837,7.592,8.571,10.531,8.571c5.878,4.898,13.959,5.388,20.816,6.857c6.857,1.469,70.041,31.347,81.796,24.98c11.755-6.367,20.571-68.572,20.571-68.572L364.564,269.022z"/>
    <g>
      <path style="opacity:0.5;fill:#7DBEEA;" d="M419.565,235.91l19.612,93.883c1.335,6.394-2.796,12.718-9.19,14.054l-132.341,27.645c-6.394,1.336-12.712-2.806-14.047-9.2l-19.612-93.883c-1.336-6.393,2.796-12.718,9.19-14.054l132.341-27.645C411.911,225.375,418.229,229.517,419.565,235.91z"/>
      <path style="fill:#1479E0;" d="M419.565,235.91l1.163,5.566l-155.579,32.499l-1.163-5.566c-1.336-6.393,2.796-12.718,9.19-14.054l132.341-27.645C411.911,225.375,418.229,229.517,419.565,235.91z"/>
      <path style="fill:#FFFFFF;" d="M389.855,238.954c0.496,2.374-1.027,4.7-3.4,5.196c-2.374,0.496-4.7-1.026-5.196-3.4c-0.496-2.374,1.026-4.7,3.4-5.196C387.033,235.058,389.359,236.58,389.855,238.954z"/>
      <path style="fill:#FFFFFF;" d="M401.305,236.562c0.496,2.374-1.026,4.7-3.4,5.196c-2.374,0.496-4.7-1.026-5.196-3.4c-0.496-2.374,1.026-4.7,3.4-5.196C398.483,232.666,400.81,234.188,401.305,236.562z"/>
      <path style="fill:#FFFFFF;" d="M412.756,234.17c0.496,2.374-1.026,4.7-3.4,5.196c-2.374,0.496-4.7-1.027-5.196-3.4c-0.496-2.374,1.027-4.7,3.4-5.196C409.934,230.274,412.26,231.796,412.756,234.17z"/>
      <rect x="345.942" y="258.59" transform="matrix(0.9789 -0.2045 0.2045 0.9789 -45.4694 83.2404)" style="fill:none;stroke:#FFFFFF;stroke-miterlimit:10;" width="68.205" height="6.09"/>
      <rect x="352.141" y="288.263" transform="matrix(0.9789 -0.2045 0.2045 0.9789 -51.4059 85.1347)" style="fill:none;stroke:#FFFFFF;stroke-miterlimit:10;" width="68.205" height="6.09"/>
      <rect x="355.24" y="303.099" transform="matrix(0.9789 -0.2045 0.2045 0.9789 -54.3739 86.0814)" style="fill:none;stroke:#FFFFFF;stroke-miterlimit:10;" width="68.205" height="6.09"/>
      <rect x="349.042" y="273.427" transform="matrix(0.9789 -0.2045 0.2045 0.9789 -48.4374 84.187)" style="fill:none;stroke:#FFFFFF;stroke-miterlimit:10;" width="68.205" height="6.09"/>
      <g>
        <g>
          <path style="fill:#91CFF9;" d="M321.128,276.061c8.55,0,15.48,6.93,15.48,15.49c0,5.11-2.48,9.65-6.3,12.47c-2.84-3.45-7.15-5.66-11.97-5.66c-1.31,0-2.59,0.16-3.81,0.48c-0.88-4.9-4.07-9-8.41-11.13C307.828,281.011,313.908,276.061,321.128,276.061z"/>
          <path style="fill:#91CFF9;" d="M330.308,304.021c2.2,2.67,3.51,6.1,3.51,9.82c0,8.56-6.93,15.49-15.48,15.49c-7.6,0-13.92-5.48-15.23-12.71c5.48-1.39,9.79-5.7,11.19-11.17c2.06,1.01,4.38,1.58,6.83,1.58C324.568,307.031,327.738,305.911,330.308,304.021z"/>
          <path style="fill:#45A2EF;" d="M318.338,298.361c4.82,0,9.13,2.21,11.97,5.66c-2.57,1.89-5.74,3.01-9.18,3.01c-2.45,0-4.77-0.57-6.83-1.58c0.31-1.23,0.48-2.51,0.48-3.84c0-0.95-0.08-1.87-0.25-2.77C315.748,298.521,317.028,298.361,318.338,298.361z"/>
          <path style="fill:#1479E0;" d="M314.528,298.841c0.17,0.9,0.25,1.82,0.25,2.77c0,1.33-0.17,2.61-0.48,3.84c-1.99-0.98-3.75-2.38-5.14-4.08C310.748,300.201,312.568,299.331,314.528,298.841z"/>
          <path style="fill:#45A2EF;" d="M306.118,287.711c4.34,2.13,7.53,6.23,8.41,11.13c-1.96,0.49-3.78,1.36-5.37,2.53c-2.21-2.68-3.52-6.09-3.52-9.82C305.638,290.221,305.808,288.941,306.118,287.711z"/>
          <path style="fill:#45A2EF;" d="M314.298,305.451c-1.4,5.47-5.71,9.78-11.19,11.17c-0.16-0.9-0.25-1.83-0.25-2.78c0-5.12,2.48-9.65,6.3-12.47C310.548,303.071,312.308,304.471,314.298,305.451z"/>
          <path style="fill:#91CFF9;" d="M309.158,301.371c-3.82,2.82-6.3,7.35-6.3,12.47c0,0.95,0.09,1.88,0.25,2.78c-1.22,0.32-2.5,0.48-3.82,0.48c-8.55,0-15.48-6.94-15.48-15.49c0-8.55,6.93-15.48,15.48-15.48c2.45,0,4.77,0.57,6.83,1.58c-0.31,1.23-0.48,2.51-0.48,3.84C305.638,295.281,306.948,298.691,309.158,301.371z"/>
        </g>
        <g>
          <path style="fill:none;stroke:#FFFFFF;stroke-miterlimit:10;" d="M314.528,298.841c0.17,0.9,0.25,1.82,0.25,2.77c0,1.33-0.17,2.61-0.48,3.84c-1.4,5.47-5.71,9.78-11.19,11.17c-1.22,0.32-2.5,0.48-3.82,0.48c-8.55,0-15.48-6.94-15.48-15.49c0-8.55,6.93-15.48,15.48-15.48c2.45,0,4.77,0.57,6.83,1.58C310.458,289.841,313.648,293.941,314.528,298.841z"/>
          <path style="fill:none;stroke:#FFFFFF;stroke-miterlimit:10;" d="M330.308,304.021c2.2,2.67,3.51,6.1,3.51,9.82c0,8.56-6.93,15.49-15.48,15.49c-7.6,0-13.92-5.48-15.23-12.71c-0.16-0.9-0.25-1.83-0.25-2.78c0-5.12,2.48-9.65,6.3-12.47c1.59-1.17,3.41-2.04,5.37-2.53c1.22-0.32,2.5-0.48,3.81-0.48C323.158,298.361,327.468,300.571,330.308,304.021z"/>
          <path style="fill:none;stroke:#FFFFFF;stroke-miterlimit:10;" d="M306.118,287.711c1.71-6.7,7.79-11.65,15.01-11.65c8.55,0,15.48,6.93,15.48,15.49c0,5.11-2.48,9.65-6.3,12.47c-2.57,1.89-5.74,3.01-9.18,3.01c-2.45,0-4.77-0.57-6.83-1.58c-1.99-0.98-3.75-2.38-5.14-4.08c-2.21-2.68-3.52-6.09-3.52-9.82C305.638,290.221,305.808,288.941,306.118,287.711z"/>
        </g>
      </g>
    </g>
    <path style="fill:#FFD2D5;" d="M514.258,342.677c-11.39,1.1-54.73-13.96-63.55-16.16c-8.82-2.21-17.63-7.72-22.78-15.07c-5.14-7.34-4.04-9.55-8.81-10.28c-4.78-0.74-20.94-3.8-22.41-7.72c-1.47-3.91,2.69-3.18,7.84-2.2c5.14,0.98,13.22,2.69,14.2,1.71c0.98-0.98-9.06-5.14-12-5.63s-11.27,0.98-12.98-1.47s-0.73-4.65,2.69-4.9c3.43-0.24,8.09-1.22,10.29-0.98c2.2,0.25,6.61,0.98,6.61,0.98s-5.63-3.18-8.57-3.18c-2.94,0-10.78,2.45-12,0c-1.22-2.45-1.47-4.9,4.65-5.63c6.13-0.74,8.57-1.23,8.57-1.23s-4.65-1.47,0.49-3.43c5.15-1.95,7.84-1.46,12.49-0.49c4.66,0.98,8.33,2.94,12.74,5.64c4.41,2.69,10.77,6.61,15.43,16.9c4.65,10.28,1.71,18.85,21.79,20.32c20.09,1.47,29.15-0.73,34.78,2.7c-5.98-10.7-8.75-19.79-9.78-23.78c0.99,0.27,2.26,0.35,3.96,0.45c6.43,0.37,19.1-1.65,23.7-7.16c0.02-0.03,0.05-0.06,0.07-0.09c4.43,12.71,10.64,36.65,11.31,46.74C533.728,339.737,525.648,341.577,514.258,342.677z"/>
    <path style="fill:#FFD2D5;" d="M262.993,271.9c0,0,11.265,1.033,12.49,4.304c1.225,3.271-7.592,4.304-12.49,3.96C258.095,279.819,262.993,271.9,262.993,271.9z"/>
    <path style="fill:#FFD2D5;" d="M264.456,280.554c0,0,11.334,0.062,12.964,3.857c1.63,3.795-7.008,5.954-11.923,6.053C260.582,290.563,264.456,280.554,264.456,280.554z"/>
    <path style="fill:#FFD2D5;" d="M265.191,290.35c0,0,11.334,0.062,12.964,3.857s-7.008,5.954-11.923,6.053C261.317,300.358,265.191,290.35,265.191,290.35z"/>
    <path style="fill:#FFD2D5;" d="M269.109,299.411c0,0,11.334,0.063,12.964,3.858c1.63,3.795-7.008,5.954-11.923,6.053C265.235,309.42,269.109,299.411,269.109,299.411z"/>
  </g>
</svg>
